<svg width="32" height="32" viewBox="0 0 32 32" fill="none" xmlns="http://www.w3.org/2000/svg">
<path d="M16 24.6667C13.992 22.0467 12 19.3333 12 17.3333C12 14.6667 13.3333 13.3333 16 13.3333C18.6667 13.3333 20 14.6667 20 17.3333C20 19.3333 18.008 22.0467 16 24.6667ZM16 24.6667C17.3333 26 18 26.6667 19.3333 27.3333C20.6667 28 22.6667 28.6667 25.3333 26.6667C28 24.6667 27.3333 22 26 18.6667C24.6667 15.3333 22.8893 11.3333 19.3333 6C18.2213 4.66667 17.3333 4 15.996 4C14.6627 4 13.832 4.6 12.6667 6C9.11068 11.3333 7.33334 15.3333 6.00001 18.6667C4.66668 22 4.00001 24.6667 6.66668 26.6667C9.33334 28.6667 11.3333 28 12.6667 27.3333C14 26.6667 14.6667 26 16 24.6667Z" stroke="#8B8B8B" stroke-width="2.33333" stroke-linecap="round" stroke-linejoin="round"/>
</svg>
