<svg width="11" height="11" viewBox="0 0 11 11" fill="none" xmlns="http://www.w3.org/2000/svg">
<g clip-path="url(#clip0_14_1170)">
<path d="M10.8396 3.00507L5.96361 7.89557C5.90557 7.95362 5.84268 7.99484 5.77496 8.01922C5.70724 8.0436 5.63468 8.05559 5.55728 8.0552C5.47988 8.0552 5.40733 8.04321 5.3396 8.01922C5.27188 7.99522 5.209 7.95401 5.15095 7.89557L0.260448 3.00507C0.125004 2.86963 0.0572815 2.70032 0.0572815 2.49716C0.0572815 2.29399 0.129841 2.11985 0.27496 1.97473C0.420078 1.82961 0.589383 1.75705 0.782875 1.75705C0.976367 1.75705 1.14567 1.82961 1.29079 1.97473L5.55728 6.24122L9.82377 1.97473C9.95922 1.83929 10.1262 1.77156 10.3247 1.77156C10.5232 1.77156 10.6949 1.84412 10.8396 1.98924C10.9847 2.13436 11.0573 2.30367 11.0573 2.49716C11.0573 2.69065 10.9847 2.85995 10.8396 3.00507Z" fill="#EC5242"/>
</g>
<defs>
<clipPath id="clip0_14_1170">
<rect width="11" height="11" fill="white" transform="matrix(0 -1 1 0 0 11)"/>
</clipPath>
</defs>
</svg>
