<svg width="50" height="50" viewBox="0 0 50 50" fill="none" xmlns="http://www.w3.org/2000/svg">
<rect width="4.54545" height="4.54545" fill="#606060"/>
<rect y="9.09091" width="4.54545" height="4.54545" fill="#606060"/>
<rect y="18.1818" width="4.54545" height="4.54545" fill="#606060"/>
<rect y="27.2727" width="4.54545" height="4.54545" fill="#606060"/>
<rect y="36.3636" width="4.54545" height="4.54545" fill="#606060"/>
<rect y="45.4545" width="4.54545" height="4.54545" fill="#606060"/>
<rect x="4.54546" y="4.54546" width="4.54545" height="4.54545" fill="#606060"/>
<rect x="4.54546" y="13.6364" width="4.54545" height="4.54545" fill="#606060"/>
<rect x="4.54546" y="22.7273" width="4.54545" height="4.54545" fill="#606060"/>
<rect x="4.54546" y="31.8182" width="4.54545" height="4.54545" fill="#606060"/>
<rect x="4.54546" y="40.9091" width="4.54545" height="4.54545" fill="#606060"/>
<rect x="9.09091" width="4.54545" height="4.54545" fill="#606060"/>
<rect x="9.09091" y="9.09091" width="4.54545" height="4.54545" fill="#606060"/>
<rect x="9.09091" y="18.1818" width="4.54545" height="4.54545" fill="#606060"/>
<rect x="9.09091" y="27.2727" width="4.54545" height="4.54545" fill="#606060"/>
<rect x="9.09091" y="36.3636" width="4.54545" height="4.54545" fill="#606060"/>
<rect x="9.09091" y="45.4545" width="4.54545" height="4.54545" fill="#606060"/>
<rect x="13.6364" y="4.54546" width="4.54545" height="4.54545" fill="#606060"/>
<rect x="13.6364" y="13.6364" width="4.54545" height="4.54545" fill="#606060"/>
<rect x="13.6364" y="22.7273" width="4.54545" height="4.54545" fill="#606060"/>
<rect x="13.6364" y="31.8182" width="4.54545" height="4.54545" fill="#606060"/>
<rect x="13.6364" y="40.9091" width="4.54545" height="4.54545" fill="#606060"/>
<rect x="18.1818" width="4.54545" height="4.54545" fill="#606060"/>
<rect x="18.1818" y="9.09091" width="4.54545" height="4.54545" fill="#606060"/>
<rect x="18.1818" y="18.1818" width="4.54545" height="4.54545" fill="#606060"/>
<rect x="18.1818" y="27.2727" width="4.54545" height="4.54545" fill="#606060"/>
<rect x="18.1818" y="36.3636" width="4.54545" height="4.54545" fill="#606060"/>
<rect x="18.1818" y="45.4545" width="4.54545" height="4.54545" fill="#606060"/>
<rect x="22.7273" y="4.54546" width="4.54545" height="4.54545" fill="#606060"/>
<rect x="22.7273" y="13.6364" width="4.54545" height="4.54545" fill="#606060"/>
<rect x="22.7273" y="22.7273" width="4.54545" height="4.54545" fill="#606060"/>
<rect x="22.7273" y="31.8182" width="4.54545" height="4.54545" fill="#606060"/>
<rect x="22.7273" y="40.9091" width="4.54545" height="4.54545" fill="#606060"/>
<rect x="27.2727" width="4.54545" height="4.54545" fill="#606060"/>
<rect x="27.2727" y="9.09091" width="4.54545" height="4.54545" fill="#606060"/>
<rect x="27.2727" y="18.1818" width="4.54545" height="4.54545" fill="#606060"/>
<rect x="27.2727" y="27.2727" width="4.54545" height="4.54545" fill="#606060"/>
<rect x="27.2727" y="36.3636" width="4.54545" height="4.54545" fill="#606060"/>
<rect x="27.2727" y="45.4545" width="4.54545" height="4.54545" fill="#606060"/>
<rect x="31.8182" y="4.54546" width="4.54545" height="4.54545" fill="#606060"/>
<rect x="31.8182" y="13.6364" width="4.54545" height="4.54545" fill="#606060"/>
<rect x="31.8182" y="22.7273" width="4.54545" height="4.54545" fill="#606060"/>
<rect x="31.8182" y="31.8182" width="4.54545" height="4.54545" fill="#606060"/>
<rect x="31.8182" y="40.9091" width="4.54545" height="4.54545" fill="#606060"/>
<rect x="36.3636" width="4.54545" height="4.54545" fill="#606060"/>
<rect x="36.3636" y="9.09091" width="4.54545" height="4.54545" fill="#606060"/>
<rect x="36.3636" y="18.1818" width="4.54545" height="4.54545" fill="#606060"/>
<rect x="36.3636" y="27.2727" width="4.54545" height="4.54545" fill="#606060"/>
<rect x="36.3636" y="36.3636" width="4.54545" height="4.54545" fill="#606060"/>
<rect x="36.3636" y="45.4545" width="4.54545" height="4.54545" fill="#606060"/>
<rect x="40.9091" y="4.54546" width="4.54545" height="4.54545" fill="#606060"/>
<rect x="40.9091" y="13.6364" width="4.54545" height="4.54545" fill="#606060"/>
<rect x="40.9091" y="22.7273" width="4.54545" height="4.54545" fill="#606060"/>
<rect x="40.9091" y="31.8182" width="4.54545" height="4.54545" fill="#606060"/>
<rect x="40.9091" y="40.9091" width="4.54545" height="4.54545" fill="#606060"/>
<rect x="45.4545" width="4.54545" height="4.54545" fill="#606060"/>
<rect x="45.4545" y="9.09091" width="4.54545" height="4.54545" fill="#606060"/>
<rect x="45.4545" y="18.1818" width="4.54545" height="4.54545" fill="#606060"/>
<rect x="45.4545" y="27.2727" width="4.54545" height="4.54545" fill="#606060"/>
<rect x="45.4545" y="36.3636" width="4.54545" height="4.54545" fill="#606060"/>
<rect x="45.4545" y="45.4545" width="4.54545" height="4.54545" fill="#606060"/>
</svg>
