<svg width="28" height="28" viewBox="0 0 28 28" fill="none" xmlns="http://www.w3.org/2000/svg">
<path d="M9.84375 15.75V14C9.84375 13.826 9.91289 13.659 10.036 13.536C10.159 13.4129 10.326 13.3438 10.5 13.3438C10.674 13.3438 10.841 13.4129 10.964 13.536C11.0871 13.659 11.1562 13.826 11.1562 14V15.75C11.1562 15.924 11.0871 16.091 10.964 16.214C10.841 16.3371 10.674 16.4062 10.5 16.4062C10.326 16.4062 10.159 16.3371 10.036 16.214C9.91289 16.091 9.84375 15.924 9.84375 15.75ZM14 16.4062C14.174 16.4062 14.341 16.3371 14.464 16.214C14.5871 16.091 14.6562 15.924 14.6562 15.75V13.125C14.6562 12.951 14.5871 12.784 14.464 12.661C14.341 12.5379 14.174 12.4688 14 12.4688C13.826 12.4688 13.659 12.5379 13.536 12.661C13.4129 12.784 13.3438 12.951 13.3438 13.125V15.75C13.3438 15.924 13.4129 16.091 13.536 16.214C13.659 16.3371 13.826 16.4062 14 16.4062ZM17.5 16.4062C17.674 16.4062 17.841 16.3371 17.964 16.214C18.0871 16.091 18.1562 15.924 18.1562 15.75V12.25C18.1562 12.076 18.0871 11.909 17.964 11.786C17.841 11.6629 17.674 11.5938 17.5 11.5938C17.326 11.5938 17.159 11.6629 17.036 11.786C16.9129 11.909 16.8438 12.076 16.8438 12.25V15.75C16.8438 15.924 16.9129 16.091 17.036 16.214C17.159 16.3371 17.326 16.4062 17.5 16.4062ZM23.4062 8.53125V19.4688H24.5C24.674 19.4688 24.841 19.5379 24.964 19.661C25.0871 19.784 25.1562 19.951 25.1562 20.125C25.1562 20.299 25.0871 20.466 24.964 20.589C24.841 20.7121 24.674 20.7812 24.5 20.7812H14.6562V23.0606C15.215 23.219 15.6976 23.5742 16.0151 24.0605C16.3325 24.5469 16.4633 25.1317 16.3833 25.7069C16.3034 26.2822 16.0181 26.8091 15.58 27.1905C15.142 27.5718 14.5808 27.7819 14 27.7819C13.4192 27.7819 12.858 27.5718 12.42 27.1905C11.9819 26.8091 11.6966 26.2822 11.6167 25.7069C11.5367 25.1317 11.6675 24.5469 11.9849 24.0605C12.3024 23.5742 12.785 23.219 13.3438 23.0606V20.7812H3.5C3.32595 20.7812 3.15903 20.7121 3.03596 20.589C2.91289 20.466 2.84375 20.299 2.84375 20.125C2.84375 19.951 2.91289 19.784 3.03596 19.661C3.15903 19.5379 3.32595 19.4688 3.5 19.4688H4.59375V8.53125H4.375C3.96889 8.53125 3.57941 8.36992 3.29224 8.08276C3.00508 7.79559 2.84375 7.40611 2.84375 7V5.25C2.84375 4.84389 3.00508 4.45441 3.29224 4.16724C3.57941 3.88008 3.96889 3.71875 4.375 3.71875H23.625C24.0311 3.71875 24.4206 3.88008 24.7078 4.16724C24.9949 4.45441 25.1562 4.84389 25.1562 5.25V7C25.1562 7.40611 24.9949 7.79559 24.7078 8.08276C24.4206 8.36992 24.0311 8.53125 23.625 8.53125H23.4062ZM14 24.2812C13.7837 24.2813 13.5722 24.3454 13.3923 24.4656C13.2125 24.5858 13.0723 24.7566 12.9895 24.9564C12.9067 25.1563 12.8851 25.3762 12.9273 25.5884C12.9695 25.8005 13.0736 25.9954 13.2266 26.1484C13.3796 26.3014 13.5745 26.4055 13.7866 26.4477C13.9988 26.4899 14.2187 26.4683 14.4186 26.3855C14.6184 26.3027 14.7892 26.1625 14.9094 25.9827C15.0296 25.8028 15.0938 25.5913 15.0938 25.375C15.0938 25.0849 14.9785 24.8067 14.7734 24.6016C14.5683 24.3965 14.2901 24.2812 14 24.2812ZM4.375 7.21875H23.625C23.683 7.21875 23.7387 7.1957 23.7797 7.15468C23.8207 7.11366 23.8438 7.05802 23.8438 7V5.25C23.8438 5.19198 23.8207 5.13634 23.7797 5.09532C23.7387 5.0543 23.683 5.03125 23.625 5.03125H4.375C4.31698 5.03125 4.26134 5.0543 4.22032 5.09532C4.1793 5.13634 4.15625 5.19198 4.15625 5.25V7C4.15625 7.05802 4.1793 7.11366 4.22032 7.15468C4.26134 7.1957 4.31698 7.21875 4.375 7.21875ZM22.0938 8.53125H5.90625V19.4688H22.0938V8.53125Z" fill="#D3D3D3"/>
</svg>
