<svg width="6" height="10" viewBox="0 0 6 10" fill="none" xmlns="http://www.w3.org/2000/svg">
<path d="M4.0137 0C3.34157 0 2.69698 0.267 2.22172 0.742264C1.74645 1.21753 1.47945 1.86212 1.47945 2.53425V3.94521H0.123288C0.0553424 3.94521 0 4 0 4.06849V5.93151C0 5.99945 0.0547945 6.05479 0.123288 6.05479H1.47945V9.87671C1.47945 9.94466 1.53425 10 1.60274 10H3.46575C3.5337 10 3.58904 9.94521 3.58904 9.87671V6.05479H4.95726C5.0137 6.05479 5.06301 6.01644 5.07671 5.96164L5.54247 4.09863C5.54705 4.08045 5.54742 4.06147 5.54357 4.04312C5.53971 4.02477 5.53172 4.00755 5.5202 3.99275C5.50868 3.97796 5.49394 3.96599 5.4771 3.95775C5.46026 3.94951 5.44176 3.94522 5.42301 3.94521H3.58904V2.53425C3.58904 2.47848 3.60003 2.42326 3.62137 2.37174C3.64271 2.32022 3.67399 2.2734 3.71342 2.23397C3.75285 2.19454 3.79967 2.16326 3.85119 2.14191C3.90271 2.12057 3.95793 2.10959 4.0137 2.10959H5.43836C5.5063 2.10959 5.56164 2.05479 5.56164 1.9863V0.123288C5.56164 0.0553424 5.50685 0 5.43836 0H4.0137Z" fill="#D3D3D3"/>
</svg>
