<svg width="32" height="32" viewBox="0 0 32 32" fill="none" xmlns="http://www.w3.org/2000/svg">
<path d="M9.13332 8.98667C9.14666 8.98667 9.14666 8.98667 9.13332 8.98667ZM28.3733 11.4667C27.8 10.0667 26.6133 8.56 25.6933 8.08C26.44 9.56 26.88 11.04 27.0533 12.1333V12.16C25.5467 8.4 22.9867 6.88 20.8933 3.57334C20.7867 3.41334 20.6667 3.24 20.5733 3.06667C20.52 2.97334 20.48 2.88 20.4267 2.78667C20.3467 2.61334 20.2667 2.44 20.2267 2.25334C20.2267 2.24 20.2133 2.22667 20.2 2.22667H20.16C17.2 3.96 15.96 7.01334 15.6533 8.94667C14.7333 9 13.8267 9.22667 13 9.62667C12.84 9.69334 12.7733 9.88 12.8267 10.04C12.8933 10.2267 13.1067 10.32 13.28 10.24C14 9.89334 14.8 9.69334 15.6 9.64H15.6667C15.7733 9.62667 15.8933 9.62667 16 9.62667C16.6667 9.61334 17.2933 9.70667 17.92 9.89334L18 9.92C18.1333 9.94667 18.2267 10 18.3333 10C18.4 10.0533 18.48 10.08 18.5467 10.1067L18.7333 10.1867C18.8267 10.2267 18.92 10.2667 19 10.3067C19.04 10.3333 19.08 10.3467 19.12 10.3733C19.2133 10.4267 19.3333 10.4667 19.3867 10.52C19.44 10.5467 19.4933 10.5867 19.5467 10.6133C20.52 11.2133 21.3333 12.04 21.88 13.0267C21.1733 12.5333 19.8933 12.04 18.6667 12.2533C23.4667 14.6667 22.1733 22.92 15.52 22.6C14.9333 22.5867 14.3467 22.4667 13.7867 22.2667C13.6533 22.2267 13.52 22.1733 13.4 22.1067C13.3333 22.08 13.24 22.04 13.1733 22C11.5333 21.16 10.1867 19.5733 9.99999 17.64C9.99999 17.64 10.6667 15.3333 14.44 15.3333C14.8533 15.3333 16 14.1867 16.04 13.8667C16.04 13.7467 13.72 12.8267 12.8133 11.9333C12.32 11.4533 12.0933 11.2267 11.8933 11.0533C11.7867 10.96 11.6667 10.88 11.5467 10.8C11.2402 9.73446 11.2264 8.60606 11.5067 7.53334C10.1333 8.16 9.06666 9.14667 8.29332 10C7.75999 9.33334 7.79999 7.13334 7.82666 6.66667C7.81332 6.66667 7.42666 6.88 7.38666 6.90667C6.91999 7.24 6.47999 7.61334 6.07999 8C5.61332 8.49334 5.19999 8.98667 4.82666 9.52C3.99999 10.7333 3.33332 12.12 3.03999 13.5733C3.03999 13.5867 2.90666 14.12 2.81332 14.8L2.77332 15.1067C2.74666 15.3333 2.71999 15.5333 2.66666 15.88V16.4267C2.66666 23.8 8.66666 29.7733 16 29.7733C22.6267 29.7733 28.1067 24.9867 29.1733 18.6667C29.2 18.52 29.2133 18.3467 29.24 18.1733C29.5067 15.88 29.2133 13.48 28.3733 11.4667Z" fill="#8B8B8B"/>
</svg>
