<svg width="28" height="28" viewBox="0 0 28 28" fill="none" xmlns="http://www.w3.org/2000/svg">
<path fill-rule="evenodd" clip-rule="evenodd" d="M13.3511 18.0525C13.0857 18.0824 12.8188 18.0973 12.5517 18.0973H8.4V21.5C8.4 21.5 7.8358 21.3859 7 21.0639C4.6102 20.1448 0 17.531 0 11.049C0 7.157 3.1556 4 7.049 4H12.551C15.9474 4 18.7831 6.4017 19.4509 9.6H22.3615C23.857 9.60019 25.2912 10.1944 26.3486 11.2519C27.406 12.3095 28 13.7437 28 15.2392C28 20.3345 23.9204 22.4422 21.7 23.2115C20.8705 23.4992 20.3 23.6 20.3 23.6V20.8777H18.2392C17.2479 20.8785 16.2739 20.6178 15.4156 20.1217C14.5574 19.6257 13.8452 18.9119 13.3511 18.0525ZM7 16.6973V19.5498C6.30249 19.2439 5.63899 18.8657 5.0204 18.4214C3.2074 17.1103 1.4 14.8878 1.4 11.0483C1.40019 9.55021 1.99543 8.11355 3.0548 7.05431C4.11417 5.99506 5.55091 5.4 7.049 5.4H12.551C13.9919 5.40002 15.3783 5.95064 16.4266 6.93919C17.4748 7.92774 18.1057 9.2795 18.1902 10.7179C18.1402 11.687 17.8903 12.6353 17.4561 13.5031C17.022 14.371 16.413 15.1396 15.6674 15.7607C14.7438 16.3731 13.6599 16.6989 12.5517 16.6973H7ZM16.5025 16.8863C16.0206 17.2811 15.4967 17.6215 14.9401 17.9013C15.3372 18.394 15.8397 18.7913 16.4106 19.0642C16.9816 19.337 17.6064 19.4783 18.2392 19.4777H21.7V21.7184C22.2929 21.4857 22.8631 21.1986 23.4031 20.8609C25.06 19.8144 26.6 18.1148 26.6 15.2392C26.6 14.115 26.1535 13.0369 25.3586 12.2419C24.5638 11.4469 23.4857 11.0002 22.3615 11H19.6V11.049C19.6 13.4773 18.3715 15.6186 16.5025 16.8863Z" fill="#D3D3D3"/>
</svg>
