<svg width="32" height="32" viewBox="0 0 32 32" fill="none" xmlns="http://www.w3.org/2000/svg">
<path d="M28.4667 14.8H16.24V18.44H24.92C24.48 23.52 20.2533 25.6933 16.2533 25.6933C11.1467 25.6933 6.66666 21.6667 6.66666 16C6.66666 10.5333 10.9333 6.30667 16.2667 6.30667C20.3867 6.30667 22.8 8.93334 22.8 8.93334L25.3333 6.29334C25.3333 6.29334 22.08 2.66667 16.1333 2.66667C8.56 2.66667 2.70667 9.06667 2.70667 16C2.70667 22.7333 8.21333 29.3333 16.3333 29.3333C23.4667 29.3333 28.6667 24.44 28.6667 17.2133C28.6667 15.68 28.4667 14.8 28.4667 14.8Z" fill="#8B8B8B"/>
</svg>
