<svg width="678" height="264" viewBox="0 0 678 264" fill="none" xmlns="http://www.w3.org/2000/svg">
<g clip-path="url(#clip0_2_4)">
<mask id="mask0_2_4" style="mask-type:luminance" maskUnits="userSpaceOnUse" x="0" y="0" width="678" height="264">
<path d="M678 0H0V264H678V0Z" fill="white"/>
</mask>
<g mask="url(#mask0_2_4)">
<path d="M38.8296 -7.51457L12.3264 -22.836L-14.1768 -7.51457V23.1283L12.3264 38.4497L38.8296 23.1283M38.8296 -7.51457V23.1283M38.8296 -7.51457L65.3376 -22.836L91.8408 -7.51457V23.1283M38.8296 23.1283L65.3376 38.4497M38.8296 206.985L65.3376 222.307M38.8296 206.985L12.3264 222.307V252.95L38.8296 268.271L65.3376 252.95M38.8296 206.985V176.343L65.3376 161.021L91.8408 176.343V206.985M65.3376 222.307V252.95M65.3376 222.307L91.8408 206.985M65.3376 252.95L91.8408 268.271L118.344 252.95M91.8408 23.1283L65.3376 38.4497M91.8408 23.1283L118.344 38.4497V69.0926L91.8408 84.414L65.3376 69.0926V38.4497M91.8408 206.985L118.344 222.307M118.344 222.307V252.95M118.344 222.307L144.852 206.985M118.344 252.95L144.852 268.271M144.852 206.985L171.355 222.307M144.852 206.985V176.343L171.355 161.021M171.355 222.307V252.95M171.355 222.307L197.858 206.985M171.355 252.95L144.852 268.271M171.355 252.95L197.858 268.271V298.914L171.355 314.235L144.852 298.914V268.271M197.858 -7.51457L171.355 -22.836L144.852 -7.51457V23.1283L171.355 38.4497M197.858 -7.51457V23.1283M197.858 -7.51457L224.366 -22.836L250.869 -7.51457V23.1283M197.858 23.1283L171.355 38.4497M197.858 23.1283L224.366 38.4497M171.355 38.4497V69.0926L197.858 84.414L224.366 69.0926M224.366 38.4497V69.0926M224.366 38.4497L250.869 23.1283M224.366 69.0926L250.869 84.414L277.373 69.0926V38.4497L250.869 23.1283M224.366 130.378L197.858 115.057L171.355 130.378V161.021M224.366 130.378V161.021M224.366 130.378L250.869 115.057L277.373 130.378M224.366 161.021L197.858 176.343M224.366 161.021L250.869 176.343M197.858 176.343L171.355 161.021M197.858 176.343V206.985M197.858 206.985L224.366 222.307L250.869 206.985V176.343M277.373 130.378V161.021M277.373 130.378L303.881 115.057M277.373 161.021L250.869 176.343M277.373 161.021L303.881 176.343L330.384 161.021V130.378M303.881 115.057L330.384 130.378M303.881 115.057V84.414L330.384 69.0926M330.384 130.378L356.887 115.057V84.414M356.887 -7.51457L330.384 -22.836L303.881 -7.51457V23.1283L330.384 38.4497M356.887 -7.51457V23.1283M356.887 -7.51457L383.395 -22.836L409.898 -7.51457V23.1283L383.395 38.4497M356.887 23.1283L330.384 38.4497M356.887 23.1283L383.395 38.4497M330.384 38.4497V69.0926M383.395 38.4497V69.0926L356.887 84.414M356.887 84.414L330.384 69.0926M436.401 161.021V130.378L409.898 115.057L383.395 130.378V161.021L409.898 176.343M436.401 161.021L409.898 176.343M436.401 161.021L462.909 176.343V206.985L436.401 222.307L409.898 206.985V176.343M515.916 206.985L542.424 222.307M515.916 206.985L489.412 222.307V252.95L515.916 268.271L542.424 252.95M515.916 206.985V176.343L542.424 161.021L568.927 176.343V206.985M542.424 222.307V252.95M542.424 222.307L568.927 206.985M542.424 252.95L568.927 268.271L595.43 252.95V222.307L568.927 206.985M356.887 206.985L383.395 222.307V252.95L356.887 268.271L330.384 252.95V222.307L356.887 206.985ZM489.412 69.0926L515.916 84.414V115.057L489.412 130.378L462.909 115.057V84.414L489.412 69.0926ZM648.441 -22.836L674.944 -7.51457V23.1283L648.441 38.4497L621.933 23.1283V-7.51457L648.441 -22.836ZM648.441 69.0926L674.944 84.414V115.057L648.441 130.378L621.933 115.057V84.414L648.441 69.0926ZM674.944 206.985L701.448 222.307V252.95L674.944 268.271L648.441 252.95V222.307L674.944 206.985Z" stroke="#353943" stroke-width="2"/>
</g>
</g>
<defs>
<clipPath id="clip0_2_4">
<rect width="678" height="264" fill="white"/>
</clipPath>
</defs>
</svg>
