<svg width="320" height="236" viewBox="0 0 320 236" fill="none" xmlns="http://www.w3.org/2000/svg">
<g clip-path="url(#clip0_4_70)">
<mask id="mask0_4_70" style="mask-type:luminance" maskUnits="userSpaceOnUse" x="-286" y="0" width="606" height="236">
<path d="M320 0H-286V236H320V0Z" fill="white"/>
</mask>
<g mask="url(#mask0_4_70)">
<mask id="mask1_4_70" style="mask-type:luminance" maskUnits="userSpaceOnUse" x="-286" y="0" width="606" height="236">
<path d="M320 0H-286V236H320V0Z" fill="white"/>
<path d="M192.487 116.314C192.487 116.65 192.62 116.971 192.857 117.208C193.094 117.445 193.415 117.579 193.75 117.579C194.085 117.579 194.406 117.445 194.643 117.208C194.879 116.971 195.012 116.65 195.012 116.314C195.012 115.979 194.879 115.657 194.643 115.42C194.406 115.183 194.085 115.05 193.75 115.05C193.415 115.05 193.094 115.183 192.857 115.42C192.62 115.657 192.487 115.979 192.487 116.314ZM242.987 126.429C242.987 126.764 243.12 127.085 243.357 127.323C243.594 127.56 243.915 127.693 244.25 127.693C244.585 127.693 244.906 127.56 245.143 127.323C245.379 127.085 245.512 126.764 245.512 126.429C245.512 126.093 245.379 125.772 245.143 125.535C244.906 125.298 244.585 125.164 244.25 125.164C243.915 125.164 243.594 125.298 243.357 125.535C243.12 125.772 242.987 126.093 242.987 126.429ZM263.187 126.429C263.187 126.764 263.32 127.085 263.557 127.323C263.794 127.56 264.115 127.693 264.45 127.693C264.785 127.693 265.106 127.56 265.343 127.323C265.579 127.085 265.712 126.764 265.712 126.429C265.712 126.093 265.579 125.772 265.343 125.535C265.106 125.298 264.785 125.164 264.45 125.164C264.115 125.164 263.794 125.298 263.557 125.535C263.32 125.772 263.187 126.093 263.187 126.429ZM202.587 106.2C202.587 106.535 202.72 106.857 202.957 107.094C203.194 107.331 203.515 107.464 203.85 107.464C204.185 107.464 204.506 107.331 204.743 107.094C204.979 106.857 205.112 106.535 205.112 106.2C205.112 105.865 204.979 105.543 204.743 105.306C204.506 105.069 204.185 104.936 203.85 104.936C203.515 104.936 203.194 105.069 202.957 105.306C202.72 105.543 202.587 105.865 202.587 106.2Z" fill="black"/>
<path d="M71.2875 136.543C71.2875 136.878 71.4205 137.2 71.6573 137.437C71.8941 137.674 72.2152 137.807 72.55 137.807C72.8849 137.807 73.206 137.674 73.4427 137.437C73.6795 137.2 73.8125 136.878 73.8125 136.543C73.8125 136.208 73.6795 135.886 73.4427 135.649C73.206 135.412 72.8849 135.279 72.55 135.279C72.2152 135.279 71.8941 135.412 71.6573 135.649C71.4205 135.886 71.2875 136.208 71.2875 136.543ZM192.488 136.543C192.488 136.878 192.621 137.2 192.857 137.437C193.094 137.674 193.415 137.807 193.75 137.807C194.085 137.807 194.406 137.674 194.643 137.437C194.88 137.2 195.013 136.878 195.013 136.543C195.013 136.208 194.88 135.886 194.643 135.649C194.406 135.412 194.085 135.279 193.75 135.279C193.415 135.279 193.094 135.412 192.857 135.649C192.621 135.886 192.488 136.208 192.488 136.543ZM91.4875 146.657C91.4875 146.992 91.6205 147.314 91.8573 147.551C92.0941 147.788 92.4152 147.921 92.75 147.921C93.0849 147.921 93.406 147.788 93.6427 147.551C93.8795 147.314 94.0125 146.992 94.0125 146.657C94.0125 146.322 93.8795 146 93.6427 145.763C93.406 145.526 93.0849 145.393 92.75 145.393C92.4152 145.393 92.0941 145.526 91.8573 145.763C91.6205 146 91.4875 146.322 91.4875 146.657ZM51.0875 146.657C51.0875 146.992 51.2205 147.314 51.4573 147.551C51.694 147.788 52.0152 147.921 52.35 147.921C52.6849 147.921 53.006 147.788 53.2427 147.551C53.4795 147.314 53.6125 146.992 53.6125 146.657C53.6125 146.322 53.4795 146 53.2427 145.763C53.006 145.526 52.6849 145.393 52.35 145.393C52.0152 145.393 51.694 145.526 51.4573 145.763C51.2205 146 51.0875 146.322 51.0875 146.657ZM30.8875 156.771C30.8875 157.107 31.0205 157.428 31.2573 157.665C31.494 157.902 31.8152 158.036 32.15 158.036C32.4848 158.036 32.806 157.902 33.0427 157.665C33.2795 157.428 33.4125 157.107 33.4125 156.771C33.4125 156.436 33.2795 156.115 33.0427 155.877C32.806 155.64 32.4848 155.507 32.15 155.507C31.8152 155.507 31.494 155.64 31.2573 155.877C31.0205 156.115 30.8875 156.436 30.8875 156.771ZM152.088 116.314C152.088 116.65 152.221 116.971 152.457 117.208C152.694 117.445 153.015 117.579 153.35 117.579C153.685 117.579 154.006 117.445 154.243 117.208C154.48 116.971 154.613 116.65 154.613 116.314C154.613 115.979 154.48 115.657 154.243 115.42C154.006 115.183 153.685 115.05 153.35 115.05C153.015 115.05 152.694 115.183 152.457 115.42C152.221 115.657 152.088 115.979 152.088 116.314ZM222.788 146.657C222.788 146.992 222.921 147.314 223.157 147.551C223.394 147.788 223.715 147.921 224.05 147.921C224.385 147.921 224.706 147.788 224.943 147.551C225.18 147.314 225.313 146.992 225.313 146.657C225.313 146.322 225.18 146 224.943 145.763C224.706 145.526 224.385 145.393 224.05 145.393C223.715 145.393 223.394 145.526 223.157 145.763C222.921 146 222.788 146.322 222.788 146.657Z" fill="black"/>
<path d="M71.2875 85.9714C71.2875 86.3067 71.4205 86.6283 71.6573 86.8654C71.894 87.1025 72.2152 87.2357 72.55 87.2357C72.8848 87.2357 73.206 87.1025 73.4427 86.8654C73.6795 86.6283 73.8125 86.3067 73.8125 85.9714C73.8125 85.6361 73.6795 85.3145 73.4427 85.0774C73.206 84.8403 72.8848 84.7071 72.55 84.7071C72.2152 84.7071 71.894 84.8403 71.6573 85.0774C71.4205 85.3145 71.2875 85.6361 71.2875 85.9714ZM182.388 96.0857C182.388 96.421 182.521 96.7426 182.757 96.9797C182.994 97.2168 183.315 97.35 183.65 97.35C183.985 97.35 184.306 97.2168 184.543 96.9797C184.779 96.7426 184.913 96.421 184.913 96.0857C184.913 95.7504 184.779 95.4288 184.543 95.1917C184.306 94.9546 183.985 94.8214 183.65 94.8214C183.315 94.8214 182.994 94.9546 182.757 95.1917C182.521 95.4288 182.388 95.7504 182.388 96.0857ZM162.188 65.7429C162.188 66.0782 162.321 66.3997 162.557 66.6368C162.794 66.8739 163.115 67.0071 163.45 67.0071C163.785 67.0071 164.106 66.8739 164.343 66.6368C164.579 66.3997 164.713 66.0782 164.713 65.7429C164.713 65.4076 164.579 65.086 164.343 64.8489C164.106 64.6118 163.785 64.4786 163.45 64.4786C163.115 64.4786 162.794 64.6118 162.557 64.8489C162.321 65.086 162.188 65.4076 162.188 65.7429ZM222.788 96.0857C222.788 96.421 222.921 96.7426 223.157 96.9797C223.394 97.2168 223.715 97.35 224.05 97.35C224.385 97.35 224.706 97.2168 224.943 96.9797C225.179 96.7426 225.313 96.421 225.313 96.0857C225.313 95.7504 225.179 95.4288 224.943 95.1917C224.706 94.9546 224.385 94.8214 224.05 94.8214C223.715 94.8214 223.394 94.9546 223.157 95.1917C222.921 95.4288 222.788 95.7504 222.788 96.0857ZM131.888 96.0857C131.888 96.421 132.021 96.7426 132.257 96.9797C132.494 97.2168 132.815 97.35 133.15 97.35C133.485 97.35 133.806 97.2168 134.043 96.9797C134.279 96.7426 134.413 96.421 134.413 96.0857C134.413 95.7504 134.279 95.4288 134.043 95.1917C133.806 94.9546 133.485 94.8214 133.15 94.8214C132.815 94.8214 132.494 94.9546 132.257 95.1917C132.021 95.4288 131.888 95.7504 131.888 96.0857ZM242.988 106.2C242.988 106.535 243.121 106.857 243.357 107.094C243.594 107.331 243.915 107.464 244.25 107.464C244.585 107.464 244.906 107.331 245.143 107.094C245.379 106.857 245.513 106.535 245.513 106.2C245.513 105.865 245.379 105.543 245.143 105.306C244.906 105.069 244.585 104.936 244.25 104.936C243.915 104.936 243.594 105.069 243.357 105.306C243.121 105.543 242.988 105.865 242.988 106.2ZM71.2875 75.8571C71.2875 76.1925 71.4205 76.514 71.6573 76.7511C71.894 76.9882 72.2152 77.1214 72.55 77.1214C72.8848 77.1214 73.206 76.9882 73.4427 76.7511C73.6795 76.514 73.8125 76.1925 73.8125 75.8571C73.8125 75.5218 73.6795 75.2003 73.4427 74.9632C73.206 74.7261 72.8848 74.5929 72.55 74.5929C72.2152 74.5929 71.894 74.7261 71.6573 74.9632C71.4205 75.2003 71.2875 75.5218 71.2875 75.8571Z" fill="black"/>
<path d="M283.388 146.657C283.388 146.992 283.521 147.314 283.757 147.551C283.994 147.788 284.315 147.921 284.65 147.921C284.985 147.921 285.306 147.788 285.543 147.551C285.78 147.314 285.913 146.992 285.913 146.657C285.913 146.322 285.78 146 285.543 145.763C285.306 145.526 284.985 145.393 284.65 145.393C284.315 145.393 283.994 145.526 283.757 145.763C283.521 146 283.388 146.322 283.388 146.657Z" fill="black"/>
<path d="M263.188 96.0857C263.188 96.421 263.321 96.7426 263.557 96.9797C263.794 97.2168 264.115 97.35 264.45 97.35C264.785 97.35 265.106 97.2168 265.343 96.9797C265.579 96.7426 265.712 96.421 265.712 96.0857C265.712 95.7504 265.579 95.4288 265.343 95.1917C265.106 94.9546 264.785 94.8214 264.45 94.8214C264.115 94.8214 263.794 94.9546 263.557 95.1917C263.321 95.4288 263.188 95.7504 263.188 96.0857Z" fill="black"/>
<path d="M232.887 156.771C232.887 157.107 233.02 157.428 233.257 157.665C233.494 157.902 233.815 158.036 234.15 158.036C234.485 158.036 234.806 157.902 235.043 157.665C235.279 157.428 235.412 157.107 235.412 156.771C235.412 156.436 235.279 156.115 235.043 155.877C234.806 155.64 234.485 155.507 234.15 155.507C233.815 155.507 233.494 155.64 233.257 155.877C233.02 156.115 232.887 156.436 232.887 156.771ZM232.887 146.657C232.887 146.992 233.02 147.314 233.257 147.551C233.494 147.788 233.815 147.921 234.15 147.921C234.485 147.921 234.806 147.788 235.043 147.551C235.279 147.314 235.412 146.992 235.412 146.657C235.412 146.322 235.279 146 235.043 145.763C234.806 145.526 234.485 145.393 234.15 145.393C233.815 145.393 233.494 145.526 233.257 145.763C233.02 146 232.887 146.322 232.887 146.657ZM232.887 166.886C232.887 167.221 233.02 167.543 233.257 167.78C233.494 168.017 233.815 168.15 234.15 168.15C234.485 168.15 234.806 168.017 235.043 167.78C235.279 167.543 235.412 167.221 235.412 166.886C235.412 166.55 235.279 166.229 235.043 165.992C234.806 165.755 234.485 165.621 234.15 165.621C233.815 165.621 233.494 165.755 233.257 165.992C233.02 166.229 232.887 166.55 232.887 166.886ZM242.987 166.886C242.987 167.221 243.12 167.543 243.357 167.78C243.594 168.017 243.915 168.15 244.25 168.15C244.585 168.15 244.906 168.017 245.143 167.78C245.379 167.543 245.512 167.221 245.512 166.886C245.512 166.55 245.379 166.229 245.143 165.992C244.906 165.755 244.585 165.621 244.25 165.621C243.915 165.621 243.594 165.755 243.357 165.992C243.12 166.229 242.987 166.55 242.987 166.886Z" fill="black"/>
<path d="M253.087 96.0858C253.087 96.4211 253.22 96.7426 253.457 96.9797C253.694 97.2168 254.015 97.35 254.35 97.35C254.685 97.35 255.006 97.2168 255.243 96.9797C255.479 96.7426 255.612 96.4211 255.612 96.0858C255.612 95.7504 255.479 95.4289 255.243 95.1918C255.006 94.9547 254.685 94.8215 254.35 94.8215C254.015 94.8215 253.694 94.9547 253.457 95.1918C253.22 95.4289 253.087 95.7504 253.087 96.0858ZM232.887 75.8572C232.887 76.1925 233.02 76.5141 233.257 76.7512C233.494 76.9883 233.815 77.1215 234.15 77.1215C234.485 77.1215 234.806 76.9883 235.043 76.7512C235.279 76.5141 235.412 76.1925 235.412 75.8572C235.412 75.5219 235.279 75.2003 235.043 74.9632C234.806 74.7261 234.485 74.5929 234.15 74.5929C233.815 74.5929 233.494 74.7261 233.257 74.9632C233.02 75.2003 232.887 75.5219 232.887 75.8572ZM293.487 75.8572C293.487 76.1925 293.62 76.5141 293.857 76.7512C294.094 76.9883 294.415 77.1215 294.75 77.1215C295.085 77.1215 295.406 76.9883 295.643 76.7512C295.879 76.5141 296.012 76.1925 296.012 75.8572C296.012 75.5219 295.879 75.2003 295.643 74.9632C295.406 74.7261 295.085 74.5929 294.75 74.5929C294.415 74.5929 294.094 74.7261 293.857 74.9632C293.62 75.2003 293.487 75.5219 293.487 75.8572ZM242.987 85.9715C242.987 86.3068 243.12 86.6284 243.357 86.8655C243.594 87.1026 243.915 87.2358 244.25 87.2358C244.585 87.2358 244.906 87.1026 245.143 86.8655C245.379 86.6284 245.512 86.3068 245.512 85.9715C245.512 85.6362 245.379 85.3146 245.143 85.0775C244.906 84.8404 244.585 84.7072 244.25 84.7072C243.915 84.7072 243.594 84.8404 243.357 85.0775C243.12 85.3146 242.987 85.6362 242.987 85.9715Z" fill="black"/>
<path d="M162.188 166.886C162.188 167.221 162.321 167.543 162.557 167.78C162.794 168.017 163.115 168.15 163.45 168.15C163.785 168.15 164.106 168.017 164.343 167.78C164.58 167.543 164.713 167.221 164.713 166.886C164.713 166.55 164.58 166.229 164.343 165.992C164.106 165.755 163.785 165.621 163.45 165.621C163.115 165.621 162.794 165.755 162.557 165.992C162.321 166.229 162.188 166.55 162.188 166.886ZM162.188 177C162.188 177.335 162.321 177.657 162.557 177.894C162.794 178.131 163.115 178.264 163.45 178.264C163.785 178.264 164.106 178.131 164.343 177.894C164.58 177.657 164.713 177.335 164.713 177C164.713 176.665 164.58 176.343 164.343 176.106C164.106 175.869 163.785 175.736 163.45 175.736C163.115 175.736 162.794 175.869 162.557 176.106C162.321 176.343 162.188 176.665 162.188 177ZM212.688 166.886C212.688 167.221 212.821 167.543 213.057 167.78C213.294 168.017 213.615 168.15 213.95 168.15C214.285 168.15 214.606 168.017 214.843 167.78C215.08 167.543 215.213 167.221 215.213 166.886C215.213 166.55 215.08 166.229 214.843 165.992C214.606 165.755 214.285 165.621 213.95 165.621C213.615 165.621 213.294 165.755 213.057 165.992C212.821 166.229 212.688 166.55 212.688 166.886ZM172.288 156.771C172.288 157.107 172.421 157.428 172.657 157.665C172.894 157.903 173.215 158.036 173.55 158.036C173.885 158.036 174.206 157.903 174.443 157.665C174.68 157.428 174.813 157.107 174.813 156.771C174.813 156.436 174.68 156.115 174.443 155.877C174.206 155.64 173.885 155.507 173.55 155.507C173.215 155.507 172.894 155.64 172.657 155.877C172.421 156.115 172.288 156.436 172.288 156.771ZM192.488 166.886C192.488 167.221 192.621 167.543 192.857 167.78C193.094 168.017 193.415 168.15 193.75 168.15C194.085 168.15 194.406 168.017 194.643 167.78C194.88 167.543 195.013 167.221 195.013 166.886C195.013 166.55 194.88 166.229 194.643 165.992C194.406 165.755 194.085 165.621 193.75 165.621C193.415 165.621 193.094 165.755 192.857 165.992C192.621 166.229 192.488 166.55 192.488 166.886Z" fill="black"/>
<path d="M-70.1125 55.6286C-70.1125 55.9639 -69.9795 56.2855 -69.7427 56.5226C-69.5059 56.7597 -69.1848 56.8929 -68.85 56.8929C-68.5151 56.8929 -68.194 56.7597 -67.9572 56.5226C-67.7205 56.2855 -67.5875 55.9639 -67.5875 55.6286C-67.5875 55.2933 -67.7205 54.9717 -67.9572 54.7346C-68.194 54.4975 -68.5151 54.3643 -68.85 54.3643C-69.1848 54.3643 -69.5059 54.4975 -69.7427 54.7346C-69.9795 54.9717 -70.1125 55.2933 -70.1125 55.6286ZM242.988 55.6286C242.988 55.9639 243.121 56.2855 243.357 56.5226C243.594 56.7597 243.915 56.8929 244.25 56.8929C244.585 56.8929 244.906 56.7597 245.143 56.5226C245.38 56.2855 245.513 55.9639 245.513 55.6286C245.513 55.2933 245.38 54.9717 245.143 54.7346C244.906 54.4975 244.585 54.3643 244.25 54.3643C243.915 54.3643 243.594 54.4975 243.357 54.7346C243.121 54.9717 242.988 55.2933 242.988 55.6286ZM141.988 65.7429C141.988 66.0782 142.121 66.3998 142.357 66.6369C142.594 66.874 142.915 67.0072 143.25 67.0072C143.585 67.0072 143.906 66.874 144.143 66.6369C144.38 66.3998 144.513 66.0782 144.513 65.7429C144.513 65.4076 144.38 65.086 144.143 64.8489C143.906 64.6118 143.585 64.4786 143.25 64.4786C142.915 64.4786 142.594 64.6118 142.357 64.8489C142.121 65.086 141.988 65.4076 141.988 65.7429ZM202.588 55.6286C202.588 55.9639 202.721 56.2855 202.957 56.5226C203.194 56.7597 203.515 56.8929 203.85 56.8929C204.185 56.8929 204.506 56.7597 204.743 56.5226C204.98 56.2855 205.113 55.9639 205.113 55.6286C205.113 55.2933 204.98 54.9717 204.743 54.7346C204.506 54.4975 204.185 54.3643 203.85 54.3643C203.515 54.3643 203.194 54.4975 202.957 54.7346C202.721 54.9717 202.588 55.2933 202.588 55.6286ZM172.288 65.7429C172.288 66.0782 172.421 66.3998 172.657 66.6369C172.894 66.874 173.215 67.0072 173.55 67.0072C173.885 67.0072 174.206 66.874 174.443 66.6369C174.68 66.3998 174.813 66.0782 174.813 65.7429C174.813 65.4076 174.68 65.086 174.443 64.8489C174.206 64.6118 173.885 64.4786 173.55 64.4786C173.215 64.4786 172.894 64.6118 172.657 64.8489C172.421 65.086 172.288 65.4076 172.288 65.7429ZM212.688 55.6286C212.688 55.9639 212.821 56.2855 213.057 56.5226C213.294 56.7597 213.615 56.8929 213.95 56.8929C214.285 56.8929 214.606 56.7597 214.843 56.5226C215.08 56.2855 215.213 55.9639 215.213 55.6286C215.213 55.2933 215.08 54.9717 214.843 54.7346C214.606 54.4975 214.285 54.3643 213.95 54.3643C213.615 54.3643 213.294 54.4975 213.057 54.7346C212.821 54.9717 212.688 55.2933 212.688 55.6286ZM-150.912 75.8572C-150.912 76.1925 -150.779 76.5141 -150.543 76.7512C-150.306 76.9883 -149.985 77.1215 -149.65 77.1215C-149.315 77.1215 -148.994 76.9883 -148.757 76.7512C-148.52 76.5141 -148.387 76.1925 -148.387 75.8572C-148.387 75.5219 -148.52 75.2003 -148.757 74.9632C-148.994 74.7261 -149.315 74.5929 -149.65 74.5929C-149.985 74.5929 -150.306 74.7261 -150.543 74.9632C-150.779 75.2003 -150.912 75.5219 -150.912 75.8572ZM-39.8125 65.7429C-39.8125 66.0782 -39.6795 66.3998 -39.4427 66.6369C-39.2059 66.874 -38.8848 67.0072 -38.55 67.0072C-38.2151 67.0072 -37.894 66.874 -37.6572 66.6369C-37.4205 66.3998 -37.2875 66.0782 -37.2875 65.7429C-37.2875 65.4076 -37.4205 65.086 -37.6572 64.8489C-37.894 64.6118 -38.2151 64.4786 -38.55 64.4786C-38.8848 64.4786 -39.2059 64.6118 -39.4427 64.8489C-39.6795 65.086 -39.8125 65.4076 -39.8125 65.7429ZM-39.8125 35.4C-39.8125 35.7353 -39.6795 36.0569 -39.4427 36.294C-39.2059 36.5311 -38.8848 36.6643 -38.55 36.6643C-38.2151 36.6643 -37.894 36.5311 -37.6572 36.294C-37.4205 36.0569 -37.2875 35.7353 -37.2875 35.4C-37.2875 35.0647 -37.4205 34.7431 -37.6572 34.506C-37.894 34.2689 -38.2151 34.1357 -38.55 34.1357C-38.8848 34.1357 -39.2059 34.2689 -39.4427 34.506C-39.6795 34.7431 -39.8125 35.0647 -39.8125 35.4ZM222.788 55.6286C222.788 55.9639 222.921 56.2855 223.157 56.5226C223.394 56.7597 223.715 56.8929 224.05 56.8929C224.385 56.8929 224.706 56.7597 224.943 56.5226C225.18 56.2855 225.313 55.9639 225.313 55.6286C225.313 55.2933 225.18 54.9717 224.943 54.7346C224.706 54.4975 224.385 54.3643 224.05 54.3643C223.715 54.3643 223.394 54.4975 223.157 54.7346C222.921 54.9717 222.788 55.2933 222.788 55.6286ZM-60.0125 75.8572C-60.0125 76.1925 -59.8795 76.5141 -59.6427 76.7512C-59.4059 76.9883 -59.0848 77.1215 -58.75 77.1215C-58.4151 77.1215 -58.094 76.9883 -57.8572 76.7512C-57.6205 76.5141 -57.4875 76.1925 -57.4875 75.8572C-57.4875 75.5219 -57.6205 75.2003 -57.8572 74.9632C-58.094 74.7261 -58.4151 74.5929 -58.75 74.5929C-59.0848 74.5929 -59.4059 74.7261 -59.6427 74.9632C-59.8795 75.2003 -60.0125 75.5219 -60.0125 75.8572Z" fill="black"/>
<path d="M111.687 197.229C111.687 197.564 111.82 197.885 112.057 198.123C112.294 198.36 112.615 198.493 112.95 198.493C113.285 198.493 113.606 198.36 113.843 198.123C114.079 197.885 114.212 197.564 114.212 197.229C114.212 196.893 114.079 196.572 113.843 196.335C113.606 196.097 113.285 195.964 112.95 195.964C112.615 195.964 112.294 196.097 112.057 196.335C111.82 196.572 111.687 196.893 111.687 197.229ZM131.887 187.114C131.887 187.45 132.02 187.771 132.257 188.008C132.494 188.245 132.815 188.379 133.15 188.379C133.485 188.379 133.806 188.245 134.043 188.008C134.279 187.771 134.412 187.45 134.412 187.114C134.412 186.779 134.279 186.457 134.043 186.22C133.806 185.983 133.485 185.85 133.15 185.85C132.815 185.85 132.494 185.983 132.257 186.22C132.02 186.457 131.887 186.779 131.887 187.114ZM162.187 197.229C162.187 197.564 162.32 197.885 162.557 198.123C162.794 198.36 163.115 198.493 163.45 198.493C163.785 198.493 164.106 198.36 164.343 198.123C164.579 197.885 164.712 197.564 164.712 197.229C164.712 196.893 164.579 196.572 164.343 196.335C164.106 196.097 163.785 195.964 163.45 195.964C163.115 195.964 162.794 196.097 162.557 196.335C162.32 196.572 162.187 196.893 162.187 197.229ZM152.087 207.343C152.087 207.678 152.22 208 152.457 208.237C152.694 208.474 153.015 208.607 153.35 208.607C153.685 208.607 154.006 208.474 154.243 208.237C154.479 208 154.612 207.678 154.612 207.343C154.612 207.008 154.479 206.686 154.243 206.449C154.006 206.212 153.685 206.079 153.35 206.079C153.015 206.079 152.694 206.212 152.457 206.449C152.22 206.686 152.087 207.008 152.087 207.343ZM172.287 217.457C172.287 217.792 172.42 218.114 172.657 218.351C172.894 218.588 173.215 218.721 173.55 218.721C173.885 218.721 174.206 218.588 174.443 218.351C174.679 218.114 174.812 217.792 174.812 217.457C174.812 217.122 174.679 216.8 174.443 216.563C174.206 216.326 173.885 216.193 173.55 216.193C173.215 216.193 172.894 216.326 172.657 216.563C172.42 216.8 172.287 217.122 172.287 217.457ZM81.3875 207.343C81.3875 207.678 81.5205 208 81.7573 208.237C81.994 208.474 82.3151 208.607 82.65 208.607C82.9848 208.607 83.3059 208.474 83.5427 208.237C83.7795 208 83.9125 207.678 83.9125 207.343C83.9125 207.008 83.7795 206.686 83.5427 206.449C83.3059 206.212 82.9848 206.079 82.65 206.079C82.3151 206.079 81.994 206.212 81.7573 206.449C81.5205 206.686 81.3875 207.008 81.3875 207.343Z" fill="black"/>
<path d="M101.587 45.5143C101.587 45.8496 101.72 46.1712 101.957 46.4083C102.194 46.6454 102.515 46.7786 102.85 46.7786C103.185 46.7786 103.506 46.6454 103.743 46.4083C103.979 46.1712 104.112 45.8496 104.112 45.5143C104.112 45.179 103.979 44.8574 103.743 44.6203C103.506 44.3832 103.185 44.25 102.85 44.25C102.515 44.25 102.194 44.3832 101.957 44.6203C101.72 44.8574 101.587 45.179 101.587 45.5143ZM222.787 35.4C222.787 35.7353 222.92 36.0569 223.157 36.294C223.394 36.5311 223.715 36.6643 224.05 36.6643C224.385 36.6643 224.706 36.5311 224.943 36.294C225.179 36.0569 225.312 35.7353 225.312 35.4C225.312 35.0647 225.179 34.7431 224.943 34.506C224.706 34.2689 224.385 34.1357 224.05 34.1357C223.715 34.1357 223.394 34.2689 223.157 34.506C222.92 34.7431 222.787 35.0647 222.787 35.4ZM313.687 55.6286C313.687 55.9639 313.82 56.2855 314.057 56.5226C314.294 56.7597 314.615 56.8929 314.95 56.8929C315.285 56.8929 315.606 56.7597 315.843 56.5226C316.079 56.2855 316.212 55.9639 316.212 55.6286C316.212 55.2933 316.079 54.9717 315.843 54.7346C315.606 54.4975 315.285 54.3643 314.95 54.3643C314.615 54.3643 314.294 54.4975 314.057 54.7346C313.82 54.9717 313.687 55.2933 313.687 55.6286ZM111.687 35.4C111.687 35.7353 111.82 36.0569 112.057 36.294C112.294 36.5311 112.615 36.6643 112.95 36.6643C113.285 36.6643 113.606 36.5311 113.843 36.294C114.079 36.0569 114.212 35.7353 114.212 35.4C114.212 35.0647 114.079 34.7431 113.843 34.506C113.606 34.2689 113.285 34.1357 112.95 34.1357C112.615 34.1357 112.294 34.2689 112.057 34.506C111.82 34.7431 111.687 35.0647 111.687 35.4ZM121.787 25.2857C121.787 25.621 121.92 25.9426 122.157 26.1797C122.394 26.4168 122.715 26.55 123.05 26.55C123.385 26.55 123.706 26.4168 123.943 26.1797C124.179 25.9426 124.312 25.621 124.312 25.2857C124.312 24.9504 124.179 24.6288 123.943 24.3917C123.706 24.1546 123.385 24.0214 123.05 24.0214C122.715 24.0214 122.394 24.1546 122.157 24.3917C121.92 24.6288 121.787 24.9504 121.787 25.2857ZM253.087 35.4C253.087 35.7353 253.22 36.0569 253.457 36.294C253.694 36.5311 254.015 36.6643 254.35 36.6643C254.685 36.6643 255.006 36.5311 255.243 36.294C255.479 36.0569 255.612 35.7353 255.612 35.4C255.612 35.0647 255.479 34.7431 255.243 34.506C255.006 34.2689 254.685 34.1357 254.35 34.1357C254.015 34.1357 253.694 34.2689 253.457 34.506C253.22 34.7431 253.087 35.0647 253.087 35.4ZM141.987 25.2857C141.987 25.621 142.12 25.9426 142.357 26.1797C142.594 26.4168 142.915 26.55 143.25 26.55C143.585 26.55 143.906 26.4168 144.143 26.1797C144.379 25.9426 144.512 25.621 144.512 25.2857C144.512 24.9504 144.379 24.6288 144.143 24.3917C143.906 24.1546 143.585 24.0214 143.25 24.0214C142.915 24.0214 142.594 24.1546 142.357 24.3917C142.12 24.6288 141.987 24.9504 141.987 25.2857Z" fill="black"/>
</mask>
<g mask="url(#mask1_4_70)">
<path d="M264.45 116.314L254.35 126.429H244.25M264.45 116.314H274.55H284.65M264.45 116.314H254.35H244.25M284.65 116.314L274.55 126.429H264.45M284.65 116.314H294.75H304.85H314.95H325.05H335.15M244.25 116.314L234.15 106.2H224.05H213.95H203.85M244.25 116.314H234.15H224.05H213.95H203.85H193.75" stroke="#D3D3D3" stroke-width="2"/>
<path d="M191.225 116.314C191.225 116.985 191.491 117.628 191.965 118.102C192.438 118.576 193.08 118.843 193.75 118.843C194.42 118.843 195.062 118.576 195.535 118.102C196.009 117.628 196.275 116.985 196.275 116.314C196.275 115.644 196.009 115.001 195.535 114.526C195.062 114.052 194.42 113.786 193.75 113.786C193.08 113.786 192.438 114.052 191.965 114.526C191.491 115.001 191.225 115.644 191.225 116.314ZM241.725 126.429C241.725 127.099 241.991 127.742 242.465 128.217C242.938 128.691 243.58 128.957 244.25 128.957C244.92 128.957 245.562 128.691 246.035 128.217C246.509 127.742 246.775 127.099 246.775 126.429C246.775 125.758 246.509 125.115 246.035 124.641C245.562 124.166 244.92 123.9 244.25 123.9C243.58 123.9 242.938 124.166 242.465 124.641C241.991 125.115 241.725 125.758 241.725 126.429ZM261.925 126.429C261.925 127.099 262.191 127.742 262.665 128.217C263.138 128.691 263.78 128.957 264.45 128.957C265.12 128.957 265.762 128.691 266.235 128.217C266.709 127.742 266.975 127.099 266.975 126.429C266.975 125.758 266.709 125.115 266.235 124.641C265.762 124.166 265.12 123.9 264.45 123.9C263.78 123.9 263.138 124.166 262.665 124.641C262.191 125.115 261.925 125.758 261.925 126.429ZM201.325 106.2C201.325 106.871 201.591 107.514 202.065 107.988C202.538 108.462 203.18 108.729 203.85 108.729C204.52 108.729 205.162 108.462 205.635 107.988C206.109 107.514 206.375 106.871 206.375 106.2C206.375 105.529 206.109 104.886 205.635 104.412C205.162 103.938 204.52 103.671 203.85 103.671C203.18 103.671 202.538 103.938 202.065 104.412C201.591 104.886 201.325 105.529 201.325 106.2Z" fill="#D3D3D3"/>
<path d="M234.15 126.429L224.05 136.543H213.95H203.85H193.75M234.15 126.429L244.25 136.543M234.15 126.429H224.05H213.95H203.85H193.75H183.65H173.55M102.85 136.543L92.75 146.657M102.85 136.543H112.95M102.85 136.543H92.75H82.65M82.65 136.543L72.55 146.657H62.45H52.35M82.65 136.543H72.55M112.95 136.543L102.85 146.657L92.75 156.771H82.65H72.55H62.45H52.35H42.25H32.15M112.95 136.543H123.05L133.15 126.429H143.25H153.35H163.45H173.55M173.55 126.429L163.45 116.314H153.35M244.25 136.543H234.15L224.05 146.657M244.25 136.543H254.35H264.45H274.55H284.65H294.75H304.85H314.95L325.05 126.429H335.15" stroke="#D3D3D3" stroke-width="2"/>
<path d="M70.025 136.543C70.025 137.213 70.291 137.857 70.7646 138.331C71.2381 138.805 71.8803 139.071 72.55 139.071C73.2197 139.071 73.8619 138.805 74.3354 138.331C74.809 137.857 75.075 137.213 75.075 136.543C75.075 135.872 74.809 135.229 74.3354 134.755C73.8619 134.281 73.2197 134.014 72.55 134.014C71.8803 134.014 71.2381 134.281 70.7646 134.755C70.291 135.229 70.025 135.872 70.025 136.543ZM191.225 136.543C191.225 137.213 191.491 137.857 191.965 138.331C192.438 138.805 193.08 139.071 193.75 139.071C194.42 139.071 195.062 138.805 195.535 138.331C196.009 137.857 196.275 137.213 196.275 136.543C196.275 135.872 196.009 135.229 195.535 134.755C195.062 134.281 194.42 134.014 193.75 134.014C193.08 134.014 192.438 134.281 191.965 134.755C191.491 135.229 191.225 135.872 191.225 136.543ZM90.225 146.657C90.225 147.328 90.491 147.971 90.9646 148.445C91.4381 148.919 92.0803 149.186 92.75 149.186C93.4197 149.186 94.0619 148.919 94.5354 148.445C95.009 147.971 95.275 147.328 95.275 146.657C95.275 145.987 95.009 145.343 94.5354 144.869C94.0619 144.395 93.4197 144.129 92.75 144.129C92.0803 144.129 91.4381 144.395 90.9646 144.869C90.491 145.343 90.225 145.987 90.225 146.657ZM49.825 146.657C49.825 147.328 50.091 147.971 50.5646 148.445C51.0381 148.919 51.6803 149.186 52.35 149.186C53.0197 149.186 53.6619 148.919 54.1354 148.445C54.609 147.971 54.875 147.328 54.875 146.657C54.875 145.987 54.609 145.343 54.1354 144.869C53.6619 144.395 53.0197 144.129 52.35 144.129C51.6803 144.129 51.0381 144.395 50.5646 144.869C50.091 145.343 49.825 145.987 49.825 146.657ZM29.625 156.771C29.625 157.442 29.891 158.085 30.3646 158.559C30.8381 159.034 31.4803 159.3 32.15 159.3C32.8197 159.3 33.4619 159.034 33.9354 158.559C34.409 158.085 34.675 157.442 34.675 156.771C34.675 156.101 34.409 155.458 33.9354 154.983C33.4619 154.509 32.8197 154.243 32.15 154.243C31.4803 154.243 30.8381 154.509 30.3646 154.983C29.891 155.458 29.625 156.101 29.625 156.771ZM150.825 116.314C150.825 116.985 151.091 117.628 151.565 118.102C152.038 118.576 152.68 118.843 153.35 118.843C154.02 118.843 154.662 118.576 155.135 118.102C155.609 117.628 155.875 116.985 155.875 116.314C155.875 115.644 155.609 115.001 155.135 114.526C154.662 114.052 154.02 113.786 153.35 113.786C152.68 113.786 152.038 114.052 151.565 114.526C151.091 115.001 150.825 115.644 150.825 116.314ZM221.525 146.657C221.525 147.328 221.791 147.971 222.265 148.445C222.738 148.919 223.38 149.186 224.05 149.186C224.72 149.186 225.362 148.919 225.835 148.445C226.309 147.971 226.575 147.328 226.575 146.657C226.575 145.987 226.309 145.343 225.835 144.869C225.362 144.395 224.72 144.129 224.05 144.129C223.38 144.129 222.738 144.395 222.265 144.869C221.791 145.343 221.525 145.987 221.525 146.657Z" fill="#D3D3D3"/>
<path d="M224.05 85.9714L213.95 96.0857H203.85H193.75H183.65M224.05 85.9714H234.15L244.25 96.0857M224.05 85.9714H213.95M213.95 85.9714L203.85 75.8571H193.75H183.65H173.55L163.45 65.7429M213.95 85.9714H203.85H193.75H183.65H173.55L163.45 75.8571H153.35L143.25 85.9714M244.25 96.0857H234.15H224.05M244.25 96.0857L254.35 106.2M143.25 85.9714L133.15 96.0857M143.25 85.9714H133.15H123.05M254.35 106.2H244.25M254.35 106.2H264.45H274.55H284.65H294.75H304.85H314.95H325.05H335.15M123.05 85.9714L112.95 75.8571H102.85H92.75H82.65H72.55M123.05 85.9714H112.95H102.85H92.75H82.65H72.55" stroke="#D3D3D3" stroke-width="2"/>
<path d="M70.025 85.9714C70.025 86.6421 70.2911 87.2852 70.7646 87.7594C71.2381 88.2336 71.8804 88.5 72.55 88.5C73.2197 88.5 73.8619 88.2336 74.3355 87.7594C74.809 87.2852 75.075 86.6421 75.075 85.9714C75.075 85.3008 74.809 84.6577 74.3355 84.1835C73.8619 83.7093 73.2197 83.4429 72.55 83.4429C71.8804 83.4429 71.2381 83.7093 70.7646 84.1835C70.2911 84.6577 70.025 85.3008 70.025 85.9714ZM181.125 96.0857C181.125 96.7563 181.391 97.3995 181.865 97.8737C182.338 98.3479 182.98 98.6143 183.65 98.6143C184.32 98.6143 184.962 98.3479 185.435 97.8737C185.909 97.3995 186.175 96.7563 186.175 96.0857C186.175 95.4151 185.909 94.772 185.435 94.2978C184.962 93.8236 184.32 93.5572 183.65 93.5572C182.98 93.5572 182.338 93.8236 181.865 94.2978C181.391 94.772 181.125 95.4151 181.125 96.0857ZM160.925 65.7429C160.925 66.4135 161.191 67.0566 161.665 67.5308C162.138 68.005 162.78 68.2714 163.45 68.2714C164.12 68.2714 164.762 68.005 165.235 67.5308C165.709 67.0566 165.975 66.4135 165.975 65.7429C165.975 65.0722 165.709 64.4291 165.235 63.9549C164.762 63.4807 164.12 63.2143 163.45 63.2143C162.78 63.2143 162.138 63.4807 161.665 63.9549C161.191 64.4291 160.925 65.0722 160.925 65.7429ZM221.525 96.0857C221.525 96.7563 221.791 97.3995 222.265 97.8737C222.738 98.3479 223.38 98.6143 224.05 98.6143C224.72 98.6143 225.362 98.3479 225.836 97.8737C226.309 97.3995 226.575 96.7563 226.575 96.0857C226.575 95.4151 226.309 94.772 225.836 94.2978C225.362 93.8236 224.72 93.5572 224.05 93.5572C223.38 93.5572 222.738 93.8236 222.265 94.2978C221.791 94.772 221.525 95.4151 221.525 96.0857ZM130.625 96.0857C130.625 96.7563 130.891 97.3995 131.365 97.8737C131.838 98.3479 132.48 98.6143 133.15 98.6143C133.82 98.6143 134.462 98.3479 134.935 97.8737C135.409 97.3995 135.675 96.7563 135.675 96.0857C135.675 95.4151 135.409 94.772 134.935 94.2978C134.462 93.8236 133.82 93.5572 133.15 93.5572C132.48 93.5572 131.838 93.8236 131.365 94.2978C130.891 94.772 130.625 95.4151 130.625 96.0857ZM241.725 106.2C241.725 106.871 241.991 107.514 242.465 107.988C242.938 108.462 243.58 108.729 244.25 108.729C244.92 108.729 245.562 108.462 246.036 107.988C246.509 107.514 246.775 106.871 246.775 106.2C246.775 105.529 246.509 104.886 246.036 104.412C245.562 103.938 244.92 103.671 244.25 103.671C243.58 103.671 242.938 103.938 242.465 104.412C241.991 104.886 241.725 105.529 241.725 106.2ZM70.025 75.8572C70.025 76.5278 70.2911 77.1709 70.7646 77.6451C71.2381 78.1193 71.8804 78.3857 72.55 78.3857C73.2197 78.3857 73.8619 78.1193 74.3355 77.6451C74.809 77.1709 75.075 76.5278 75.075 75.8572C75.075 75.1865 74.809 74.5434 74.3355 74.0692C73.8619 73.595 73.2197 73.3286 72.55 73.3286C71.8804 73.3286 71.2381 73.595 70.7646 74.0692C70.2911 74.5434 70.025 75.1865 70.025 75.8572Z" fill="#D3D3D3"/>
<path d="M335.15 136.543H325.05L314.95 146.657H304.85H294.75H284.65" stroke="#D3D3D3" stroke-width="2"/>
<path d="M282.125 146.657C282.125 147.328 282.391 147.971 282.865 148.445C283.338 148.919 283.98 149.186 284.65 149.186C285.32 149.186 285.962 148.919 286.435 148.445C286.909 147.971 287.175 147.328 287.175 146.657C287.175 145.986 286.909 145.343 286.435 144.869C285.962 144.395 285.32 144.129 284.65 144.129C283.98 144.129 283.338 144.395 282.865 144.869C282.391 145.343 282.125 145.986 282.125 146.657Z" fill="#D3D3D3"/>
<path d="M335.15 96.0857H325.05H314.95H304.85H294.75H284.65H274.55H264.45" stroke="#D3D3D3" stroke-width="2"/>
<path d="M261.925 96.0857C261.925 96.7563 262.191 97.3995 262.665 97.8737C263.138 98.3479 263.78 98.6143 264.45 98.6143C265.12 98.6143 265.762 98.3479 266.235 97.8737C266.709 97.3995 266.975 96.7563 266.975 96.0857C266.975 95.4151 266.709 94.7719 266.235 94.2977C265.762 93.8235 265.12 93.5571 264.45 93.5571C263.78 93.5571 263.138 93.8235 262.665 94.2977C262.191 94.7719 261.925 95.4151 261.925 96.0857Z" fill="#D3D3D3"/>
<path d="M274.55 156.771L264.45 146.657H254.35H244.25H234.15M274.55 156.771H284.65H294.75H304.85H314.95L325.05 146.657H335.15M274.55 156.771H264.45H254.35M244.25 156.771L234.15 166.886M244.25 156.771H254.35M244.25 156.771H234.15M254.35 156.771L244.25 166.886" stroke="#D3D3D3" stroke-width="2"/>
<path d="M231.625 156.771C231.625 157.442 231.891 158.085 232.365 158.559C232.838 159.034 233.48 159.3 234.15 159.3C234.82 159.3 235.462 159.034 235.935 158.559C236.409 158.085 236.675 157.442 236.675 156.771C236.675 156.101 236.409 155.458 235.935 154.983C235.462 154.509 234.82 154.243 234.15 154.243C233.48 154.243 232.838 154.509 232.365 154.983C231.891 155.458 231.625 156.101 231.625 156.771ZM231.625 146.657C231.625 147.328 231.891 147.971 232.365 148.445C232.838 148.919 233.48 149.186 234.15 149.186C234.82 149.186 235.462 148.919 235.935 148.445C236.409 147.971 236.675 147.328 236.675 146.657C236.675 145.986 236.409 145.343 235.935 144.869C235.462 144.395 234.82 144.129 234.15 144.129C233.48 144.129 232.838 144.395 232.365 144.869C231.891 145.343 231.625 145.986 231.625 146.657ZM231.625 166.886C231.625 167.556 231.891 168.199 232.365 168.674C232.838 169.148 233.48 169.414 234.15 169.414C234.82 169.414 235.462 169.148 235.935 168.674C236.409 168.199 236.675 167.556 236.675 166.886C236.675 166.215 236.409 165.572 235.935 165.098C235.462 164.624 234.82 164.357 234.15 164.357C233.48 164.357 232.838 164.624 232.365 165.098C231.891 165.572 231.625 166.215 231.625 166.886ZM241.725 166.886C241.725 167.556 241.991 168.199 242.465 168.674C242.938 169.148 243.58 169.414 244.25 169.414C244.92 169.414 245.562 169.148 246.035 168.674C246.509 168.199 246.775 167.556 246.775 166.886C246.775 166.215 246.509 165.572 246.035 165.098C245.562 164.624 244.92 164.357 244.25 164.357C243.58 164.357 242.938 164.624 242.465 165.098C241.991 165.572 241.725 166.215 241.725 166.886Z" fill="#D3D3D3"/>
<path d="M274.55 85.9714L264.45 75.8571H254.35H244.25H234.15M274.55 85.9714H284.65H294.75H304.85M274.55 85.9714H264.45M304.85 85.9714L294.75 75.8571M304.85 85.9714H314.95H325.05H335.15M264.45 85.9714H254.35H244.25M264.45 85.9714L254.35 96.0857" stroke="#D3D3D3" stroke-width="2"/>
<path d="M251.825 96.0857C251.825 96.7563 252.091 97.3995 252.565 97.8737C253.038 98.3479 253.68 98.6143 254.35 98.6143C255.02 98.6143 255.662 98.3479 256.135 97.8737C256.609 97.3995 256.875 96.7563 256.875 96.0857C256.875 95.4151 256.609 94.7719 256.135 94.2977C255.662 93.8235 255.02 93.5571 254.35 93.5571C253.68 93.5571 253.038 93.8235 252.565 94.2977C252.091 94.7719 251.825 95.4151 251.825 96.0857ZM231.625 75.8571C231.625 76.5277 231.891 77.1709 232.365 77.6451C232.838 78.1193 233.48 78.3857 234.15 78.3857C234.82 78.3857 235.462 78.1193 235.935 77.6451C236.409 77.1709 236.675 76.5277 236.675 75.8571C236.675 75.1865 236.409 74.5434 235.935 74.0692C235.462 73.595 234.82 73.3286 234.15 73.3286C233.48 73.3286 232.838 73.595 232.365 74.0692C231.891 74.5434 231.625 75.1865 231.625 75.8571ZM292.225 75.8571C292.225 76.5277 292.491 77.1709 292.965 77.6451C293.438 78.1193 294.08 78.3857 294.75 78.3857C295.42 78.3857 296.062 78.1193 296.535 77.6451C297.009 77.1709 297.275 76.5277 297.275 75.8571C297.275 75.1865 297.009 74.5434 296.535 74.0692C296.062 73.595 295.42 73.3286 294.75 73.3286C294.08 73.3286 293.438 73.595 292.965 74.0692C292.491 74.5434 292.225 75.1865 292.225 75.8571ZM241.725 85.9714C241.725 86.642 241.991 87.2852 242.465 87.7594C242.938 88.2336 243.58 88.5 244.25 88.5C244.92 88.5 245.562 88.2336 246.035 87.7594C246.509 87.2852 246.775 86.642 246.775 85.9714C246.775 85.3008 246.509 84.6576 246.035 84.1834C245.562 83.7092 244.92 83.4428 244.25 83.4428C243.58 83.4428 242.938 83.7092 242.465 84.1834C241.991 84.6576 241.725 85.3008 241.725 85.9714Z" fill="#D3D3D3"/>
<path d="M193.75 177H183.65H173.55H163.45M193.75 177H203.85M193.75 177L183.65 166.886M224.05 177L213.95 166.886M224.05 177H234.15H244.25H254.35L264.45 166.886H274.55H284.65H294.75H304.85H314.95L325.05 156.771H335.15M224.05 177H213.95H203.85M183.65 166.886L173.55 156.771M183.65 166.886H173.55H163.45M203.85 177L193.75 166.886" stroke="#D3D3D3" stroke-width="2"/>
<path d="M160.925 166.886C160.925 167.556 161.191 168.199 161.665 168.674C162.138 169.148 162.78 169.414 163.45 169.414C164.12 169.414 164.762 169.148 165.236 168.674C165.709 168.199 165.975 167.556 165.975 166.886C165.975 166.215 165.709 165.572 165.236 165.098C164.762 164.624 164.12 164.357 163.45 164.357C162.78 164.357 162.138 164.624 161.665 165.098C161.191 165.572 160.925 166.215 160.925 166.886ZM160.925 177C160.925 177.671 161.191 178.314 161.665 178.788C162.138 179.262 162.78 179.529 163.45 179.529C164.12 179.529 164.762 179.262 165.236 178.788C165.709 178.314 165.975 177.671 165.975 177C165.975 176.329 165.709 175.686 165.236 175.212C164.762 174.738 164.12 174.471 163.45 174.471C162.78 174.471 162.138 174.738 161.665 175.212C161.191 175.686 160.925 176.329 160.925 177ZM211.425 166.886C211.425 167.556 211.691 168.199 212.165 168.674C212.638 169.148 213.28 169.414 213.95 169.414C214.62 169.414 215.262 169.148 215.736 168.674C216.209 168.199 216.475 167.556 216.475 166.886C216.475 166.215 216.209 165.572 215.736 165.098C215.262 164.624 214.62 164.357 213.95 164.357C213.28 164.357 212.638 164.624 212.165 165.098C211.691 165.572 211.425 166.215 211.425 166.886ZM171.025 156.771C171.025 157.442 171.291 158.085 171.765 158.559C172.238 159.034 172.88 159.3 173.55 159.3C174.22 159.3 174.862 159.034 175.336 158.559C175.809 158.085 176.075 157.442 176.075 156.771C176.075 156.101 175.809 155.458 175.336 154.983C174.862 154.509 174.22 154.243 173.55 154.243C172.88 154.243 172.238 154.509 171.765 154.983C171.291 155.458 171.025 156.101 171.025 156.771ZM191.225 166.886C191.225 167.556 191.491 168.199 191.965 168.674C192.438 169.148 193.08 169.414 193.75 169.414C194.42 169.414 195.062 169.148 195.536 168.674C196.009 168.199 196.275 167.556 196.275 166.886C196.275 166.215 196.009 165.572 195.536 165.098C195.062 164.624 194.42 164.357 193.75 164.357C193.08 164.357 192.438 164.624 191.965 165.098C191.491 165.572 191.225 166.215 191.225 166.886Z" fill="#D3D3D3"/>
<path d="M254.35 65.7429L244.25 55.6286M254.35 65.7429H264.45H274.55H284.65H294.75H304.85L314.95 75.8572H325.05H335.15M254.35 65.7429H244.25H234.15M153.35 55.6286L143.25 65.7429M153.35 55.6286H163.45H173.55L183.65 65.7429M153.35 55.6286H143.25H133.15H123.05H112.95M213.95 65.7429L203.85 55.6286M213.95 65.7429H224.05M213.95 65.7429H203.85H193.75H183.65M183.65 65.7429H173.55M224.05 65.7429L213.95 55.6286M224.05 65.7429H234.15M-58.75 55.6286L-68.85 65.7429H-78.95H-89.05H-99.15H-109.25H-119.35H-129.45L-139.55 75.8572H-149.65M-58.75 55.6286H-48.65H-38.55H-28.45H-18.35M-58.75 55.6286H-68.85M1.85004 55.6286L-8.24996 65.7429H-18.35H-28.45H-38.55M1.85004 55.6286H11.95H22.05H32.15H42.25H52.35H62.45H72.55H82.65H92.75H102.85H112.95M1.85004 55.6286H-8.24996H-18.35M-18.35 55.6286L-28.45 45.5143L-38.55 35.4M234.15 65.7429L224.05 55.6286M112.95 55.6286L102.85 65.7429H92.75H82.65H72.55H62.45H52.35H42.25H32.15H22.05H11.95H1.85004L-8.24996 75.8572H-18.35H-28.45H-38.55H-48.65H-58.75" stroke="#D3D3D3" stroke-width="2"/>
<path d="M-71.375 55.6285C-71.375 56.2992 -71.109 56.9423 -70.6354 57.4165C-70.1619 57.8907 -69.5197 58.1571 -68.85 58.1571C-68.1803 58.1571 -67.5381 57.8907 -67.0646 57.4165C-66.591 56.9423 -66.325 56.2992 -66.325 55.6285C-66.325 54.9579 -66.591 54.3148 -67.0646 53.8406C-67.5381 53.3664 -68.1803 53.1 -68.85 53.1C-69.5197 53.1 -70.1619 53.3664 -70.6354 53.8406C-71.109 54.3148 -71.375 54.9579 -71.375 55.6285ZM241.725 55.6285C241.725 56.2992 241.991 56.9423 242.465 57.4165C242.938 57.8907 243.58 58.1571 244.25 58.1571C244.92 58.1571 245.562 57.8907 246.035 57.4165C246.509 56.9423 246.775 56.2992 246.775 55.6285C246.775 54.9579 246.509 54.3148 246.035 53.8406C245.562 53.3664 244.92 53.1 244.25 53.1C243.58 53.1 242.938 53.3664 242.465 53.8406C241.991 54.3148 241.725 54.9579 241.725 55.6285ZM140.725 65.7428C140.725 66.4135 140.991 67.0566 141.465 67.5308C141.938 68.005 142.58 68.2714 143.25 68.2714C143.92 68.2714 144.562 68.005 145.035 67.5308C145.509 67.0566 145.775 66.4135 145.775 65.7428C145.775 65.0722 145.509 64.4291 145.035 63.9549C144.562 63.4807 143.92 63.2143 143.25 63.2143C142.58 63.2143 141.938 63.4807 141.465 63.9549C140.991 64.4291 140.725 65.0722 140.725 65.7428ZM201.325 55.6285C201.325 56.2992 201.591 56.9423 202.065 57.4165C202.538 57.8907 203.18 58.1571 203.85 58.1571C204.52 58.1571 205.162 57.8907 205.635 57.4165C206.109 56.9423 206.375 56.2992 206.375 55.6285C206.375 54.9579 206.109 54.3148 205.635 53.8406C205.162 53.3664 204.52 53.1 203.85 53.1C203.18 53.1 202.538 53.3664 202.065 53.8406C201.591 54.3148 201.325 54.9579 201.325 55.6285ZM171.025 65.7428C171.025 66.4135 171.291 67.0566 171.765 67.5308C172.238 68.005 172.88 68.2714 173.55 68.2714C174.22 68.2714 174.862 68.005 175.335 67.5308C175.809 67.0566 176.075 66.4135 176.075 65.7428C176.075 65.0722 175.809 64.4291 175.335 63.9549C174.862 63.4807 174.22 63.2143 173.55 63.2143C172.88 63.2143 172.238 63.4807 171.765 63.9549C171.291 64.4291 171.025 65.0722 171.025 65.7428ZM211.425 55.6285C211.425 56.2992 211.691 56.9423 212.165 57.4165C212.638 57.8907 213.28 58.1571 213.95 58.1571C214.62 58.1571 215.262 57.8907 215.735 57.4165C216.209 56.9423 216.475 56.2992 216.475 55.6285C216.475 54.9579 216.209 54.3148 215.735 53.8406C215.262 53.3664 214.62 53.1 213.95 53.1C213.28 53.1 212.638 53.3664 212.165 53.8406C211.691 54.3148 211.425 54.9579 211.425 55.6285ZM-152.175 75.8571C-152.175 76.5277 -151.909 77.1709 -151.435 77.6451C-150.962 78.1193 -150.32 78.3857 -149.65 78.3857C-148.98 78.3857 -148.338 78.1193 -147.865 77.6451C-147.391 77.1709 -147.125 76.5277 -147.125 75.8571C-147.125 75.1865 -147.391 74.5433 -147.865 74.0691C-148.338 73.5949 -148.98 73.3285 -149.65 73.3285C-150.32 73.3285 -150.962 73.5949 -151.435 74.0691C-151.909 74.5433 -152.175 75.1865 -152.175 75.8571ZM-41.075 65.7428C-41.075 66.4135 -40.809 67.0566 -40.3354 67.5308C-39.8619 68.005 -39.2197 68.2714 -38.55 68.2714C-37.8803 68.2714 -37.2381 68.005 -36.7646 67.5308C-36.291 67.0566 -36.025 66.4135 -36.025 65.7428C-36.025 65.0722 -36.291 64.4291 -36.7646 63.9549C-37.2381 63.4807 -37.8803 63.2143 -38.55 63.2143C-39.2197 63.2143 -39.8619 63.4807 -40.3354 63.9549C-40.809 64.4291 -41.075 65.0722 -41.075 65.7428ZM-41.075 35.4C-41.075 36.0706 -40.809 36.7137 -40.3354 37.1879C-39.8619 37.6621 -39.2197 37.9285 -38.55 37.9285C-37.8803 37.9285 -37.2381 37.6621 -36.7646 37.1879C-36.291 36.7137 -36.025 36.0706 -36.025 35.4C-36.025 34.7294 -36.291 34.0862 -36.7646 33.612C-37.2381 33.1378 -37.8803 32.8714 -38.55 32.8714C-39.2197 32.8714 -39.8619 33.1378 -40.3354 33.612C-40.809 34.0862 -41.075 34.7294 -41.075 35.4ZM221.525 55.6285C221.525 56.2992 221.791 56.9423 222.265 57.4165C222.738 57.8907 223.38 58.1571 224.05 58.1571C224.72 58.1571 225.362 57.8907 225.835 57.4165C226.309 56.9423 226.575 56.2992 226.575 55.6285C226.575 54.9579 226.309 54.3148 225.835 53.8406C225.362 53.3664 224.72 53.1 224.05 53.1C223.38 53.1 222.738 53.3664 222.265 53.8406C221.791 54.3148 221.525 54.9579 221.525 55.6285ZM-61.275 75.8571C-61.275 76.5277 -61.009 77.1709 -60.5354 77.6451C-60.0619 78.1193 -59.4197 78.3857 -58.75 78.3857C-58.0803 78.3857 -57.4381 78.1193 -56.9646 77.6451C-56.491 77.1709 -56.225 76.5277 -56.225 75.8571C-56.225 75.1865 -56.491 74.5433 -56.9646 74.0691C-57.4381 73.5949 -58.0803 73.3285 -58.75 73.3285C-59.4197 73.3285 -60.0619 73.5949 -60.5354 74.0691C-61.009 74.5433 -61.275 75.1865 -61.275 75.8571Z" fill="#D3D3D3"/>
<path d="M143.25 187.114H133.15M143.25 187.114H153.35H163.45H173.55H183.65M143.25 187.114L133.15 197.229H123.05M183.65 187.114L173.55 197.229H163.45M183.65 187.114H193.75M193.75 187.114L183.65 197.229L173.55 207.343H163.45H153.35M193.75 187.114H203.85H213.95M213.95 187.114L203.85 197.229H193.75L183.65 207.343L173.55 217.457M213.95 187.114H224.05H234.15H244.25H254.35L264.45 177H274.55H284.65H294.75H304.85H314.95L325.05 166.886H335.15M123.05 197.229L112.95 207.343H102.85H92.75H82.65M123.05 197.229H112.95" stroke="#D3D3D3" stroke-width="2"/>
<path d="M110.425 197.229C110.425 197.899 110.691 198.542 111.165 199.017C111.638 199.491 112.28 199.757 112.95 199.757C113.62 199.757 114.262 199.491 114.735 199.017C115.209 198.542 115.475 197.899 115.475 197.229C115.475 196.558 115.209 195.915 114.735 195.441C114.262 194.966 113.62 194.7 112.95 194.7C112.28 194.7 111.638 194.966 111.165 195.441C110.691 195.915 110.425 196.558 110.425 197.229ZM130.625 187.114C130.625 187.785 130.891 188.428 131.365 188.902C131.838 189.376 132.48 189.643 133.15 189.643C133.82 189.643 134.462 189.376 134.935 188.902C135.409 188.428 135.675 187.785 135.675 187.114C135.675 186.444 135.409 185.8 134.935 185.326C134.462 184.852 133.82 184.586 133.15 184.586C132.48 184.586 131.838 184.852 131.365 185.326C130.891 185.8 130.625 186.444 130.625 187.114ZM160.925 197.229C160.925 197.899 161.191 198.542 161.665 199.017C162.138 199.491 162.78 199.757 163.45 199.757C164.12 199.757 164.762 199.491 165.235 199.017C165.709 198.542 165.975 197.899 165.975 197.229C165.975 196.558 165.709 195.915 165.235 195.441C164.762 194.966 164.12 194.7 163.45 194.7C162.78 194.7 162.138 194.966 161.665 195.441C161.191 195.915 160.925 196.558 160.925 197.229ZM150.825 207.343C150.825 208.013 151.091 208.657 151.565 209.131C152.038 209.605 152.68 209.871 153.35 209.871C154.02 209.871 154.662 209.605 155.135 209.131C155.609 208.657 155.875 208.013 155.875 207.343C155.875 206.672 155.609 206.029 155.135 205.555C154.662 205.081 154.02 204.814 153.35 204.814C152.68 204.814 152.038 205.081 151.565 205.555C151.091 206.029 150.825 206.672 150.825 207.343ZM171.025 217.457C171.025 218.128 171.291 218.771 171.765 219.245C172.238 219.719 172.88 219.986 173.55 219.986C174.22 219.986 174.862 219.719 175.335 219.245C175.809 218.771 176.075 218.128 176.075 217.457C176.075 216.787 175.809 216.143 175.335 215.669C174.862 215.195 174.22 214.929 173.55 214.929C172.88 214.929 172.238 215.195 171.765 215.669C171.291 216.143 171.025 216.787 171.025 217.457ZM80.125 207.343C80.125 208.013 80.3911 208.657 80.8646 209.131C81.3381 209.605 81.9804 209.871 82.65 209.871C83.3197 209.871 83.9619 209.605 84.4355 209.131C84.909 208.657 85.175 208.013 85.175 207.343C85.175 206.672 84.909 206.029 84.4355 205.555C83.9619 205.081 83.3197 204.814 82.65 204.814C81.9804 204.814 81.3381 205.081 80.8646 205.555C80.3911 206.029 80.125 206.672 80.125 207.343Z" fill="#D3D3D3"/>
<path d="M254.35 45.5143L244.25 35.4H234.15H224.05M254.35 45.5143L264.45 55.6286H274.55M254.35 45.5143H244.25H234.15H224.05H213.95H203.85L193.75 55.6286H183.65L173.55 45.5143H163.45M325.05 65.7428L314.95 55.6286M325.05 65.7428H335.15M325.05 65.7428H314.95L304.85 55.6286H294.75H284.65H274.55M143.25 45.5143L133.15 35.4H123.05H112.95M143.25 45.5143H153.35M143.25 45.5143H133.15H123.05H112.95H102.85M153.35 45.5143L143.25 35.4L133.15 25.2857H123.05M153.35 45.5143H163.45M274.55 55.6286L264.45 45.5143L254.35 35.4M163.45 45.5143L153.35 35.4L143.25 25.2857" stroke="#D3D3D3" stroke-width="2"/>
<path d="M100.325 45.5143C100.325 46.1849 100.591 46.8281 101.065 47.3023C101.538 47.7765 102.18 48.0429 102.85 48.0429C103.52 48.0429 104.162 47.7765 104.635 47.3023C105.109 46.8281 105.375 46.1849 105.375 45.5143C105.375 44.8437 105.109 44.2005 104.635 43.7263C104.162 43.2521 103.52 42.9857 102.85 42.9857C102.18 42.9857 101.538 43.2521 101.065 43.7263C100.591 44.2005 100.325 44.8437 100.325 45.5143ZM221.525 35.4C221.525 36.0706 221.791 36.7138 222.265 37.188C222.738 37.6622 223.38 37.9286 224.05 37.9286C224.72 37.9286 225.362 37.6622 225.835 37.188C226.309 36.7138 226.575 36.0706 226.575 35.4C226.575 34.7294 226.309 34.0862 225.835 33.612C225.362 33.1378 224.72 32.8714 224.05 32.8714C223.38 32.8714 222.738 33.1378 222.265 33.612C221.791 34.0862 221.525 34.7294 221.525 35.4ZM312.425 55.6286C312.425 56.2992 312.691 56.9423 313.165 57.4165C313.638 57.8907 314.28 58.1571 314.95 58.1571C315.62 58.1571 316.262 57.8907 316.735 57.4165C317.209 56.9423 317.475 56.2992 317.475 55.6286C317.475 54.958 317.209 54.3148 316.735 53.8406C316.262 53.3664 315.62 53.1 314.95 53.1C314.28 53.1 313.638 53.3664 313.165 53.8406C312.691 54.3148 312.425 54.958 312.425 55.6286ZM110.425 35.4C110.425 36.0706 110.691 36.7138 111.165 37.188C111.638 37.6622 112.28 37.9286 112.95 37.9286C113.62 37.9286 114.262 37.6622 114.735 37.188C115.209 36.7138 115.475 36.0706 115.475 35.4C115.475 34.7294 115.209 34.0862 114.735 33.612C114.262 33.1378 113.62 32.8714 112.95 32.8714C112.28 32.8714 111.638 33.1378 111.165 33.612C110.691 34.0862 110.425 34.7294 110.425 35.4ZM120.525 25.2857C120.525 25.9563 120.791 26.5995 121.265 27.0737C121.738 27.5479 122.38 27.8143 123.05 27.8143C123.72 27.8143 124.362 27.5479 124.835 27.0737C125.309 26.5995 125.575 25.9563 125.575 25.2857C125.575 24.6151 125.309 23.9719 124.835 23.4977C124.362 23.0235 123.72 22.7571 123.05 22.7571C122.38 22.7571 121.738 23.0235 121.265 23.4977C120.791 23.9719 120.525 24.6151 120.525 25.2857ZM251.825 35.4C251.825 36.0706 252.091 36.7138 252.565 37.188C253.038 37.6622 253.68 37.9286 254.35 37.9286C255.02 37.9286 255.662 37.6622 256.135 37.188C256.609 36.7138 256.875 36.0706 256.875 35.4C256.875 34.7294 256.609 34.0862 256.135 33.612C255.662 33.1378 255.02 32.8714 254.35 32.8714C253.68 32.8714 253.038 33.1378 252.565 33.612C252.091 34.0862 251.825 34.7294 251.825 35.4ZM140.725 25.2857C140.725 25.9563 140.991 26.5995 141.465 27.0737C141.938 27.5479 142.58 27.8143 143.25 27.8143C143.92 27.8143 144.562 27.5479 145.035 27.0737C145.509 26.5995 145.775 25.9563 145.775 25.2857C145.775 24.6151 145.509 23.9719 145.035 23.4977C144.562 23.0235 143.92 22.7571 143.25 22.7571C142.58 22.7571 141.938 23.0235 141.465 23.4977C140.991 23.9719 140.725 24.6151 140.725 25.2857Z" fill="#D3D3D3"/>
</g>
</g>
</g>
<defs>
<clipPath id="clip0_4_70">
<rect width="606" height="236" fill="white" transform="translate(-286)"/>
</clipPath>
</defs>
</svg>
