<svg width="28" height="28" viewBox="0 0 28 28" fill="none" xmlns="http://www.w3.org/2000/svg">
<path d="M25.7381 16.625L24.2375 15.1244C24.4082 14.774 24.4979 14.3897 24.5 14C24.5 13.4808 24.346 12.9733 24.0576 12.5416C23.7692 12.11 23.3592 11.7735 22.8795 11.5748C22.3999 11.3761 21.8721 11.3242 21.3629 11.4254C20.8537 11.5267 20.386 11.7767 20.0188 12.1438C19.6517 12.511 19.4017 12.9787 19.3004 13.4879C19.1992 13.9971 19.2511 14.5249 19.4498 15.0045C19.6485 15.4842 19.985 15.8942 20.4166 16.1826C20.8483 16.471 21.3558 16.625 21.875 16.625C22.265 16.6231 22.6496 16.5333 23.0003 16.3625L24.5 17.8623V24.5H19.25V21.875C19.2481 20.2511 18.6022 18.6943 17.454 17.546C16.3057 16.3978 14.7489 15.7519 13.125 15.75H7.875C6.25112 15.7519 4.69428 16.3978 3.54602 17.546C2.39776 18.6943 1.75185 20.2511 1.75 21.875V26.25H26.25V17.8623C26.2506 17.6324 26.2057 17.4048 26.1179 17.1924C26.03 16.98 25.901 16.7872 25.7381 16.625ZM3.5 21.875C3.50139 20.7151 3.96277 19.6031 4.78294 18.7829C5.60311 17.9628 6.7151 17.5014 7.875 17.5H13.125C14.2849 17.5014 15.3969 17.9628 16.2171 18.7829C17.0372 19.6031 17.4986 20.7151 17.5 21.875V24.5H3.5V21.875Z" fill="#D3D3D3"/>
<path d="M10.5 3.5C11.3653 3.5 12.2112 3.75659 12.9306 4.23732C13.6501 4.71805 14.2108 5.40133 14.542 6.20076C14.8731 7.00019 14.9597 7.87985 14.7909 8.72852C14.6221 9.57719 14.2054 10.3567 13.5936 10.9686C12.9817 11.5804 12.2022 11.9971 11.3535 12.1659C10.5049 12.3347 9.62519 12.2481 8.82576 11.917C8.02634 11.5858 7.34305 11.0251 6.86232 10.3056C6.38159 9.58615 6.125 8.74029 6.125 7.875C6.125 6.71468 6.58594 5.60188 7.40641 4.78141C8.22688 3.96094 9.33968 3.5 10.5 3.5ZM10.5 1.75C9.28859 1.75 8.10439 2.10923 7.09714 2.78225C6.08988 3.45527 5.30483 4.41187 4.84124 5.53106C4.37765 6.65026 4.25636 7.88179 4.49269 9.06993C4.72903 10.2581 5.31238 11.3494 6.16897 12.206C7.02557 13.0626 8.11694 13.646 9.30507 13.8823C10.4932 14.1186 11.7247 13.9973 12.8439 13.5338C13.9631 13.0702 14.9197 12.2851 15.5928 11.2779C16.2658 10.2706 16.625 9.08641 16.625 7.875C16.625 6.25055 15.9797 4.69263 14.831 3.54397C13.6824 2.39531 12.1245 1.75 10.5 1.75Z" fill="#D3D3D3"/>
</svg>
