<svg width="28" height="28" viewBox="0 0 28 28" fill="none" xmlns="http://www.w3.org/2000/svg">
<path d="M14 14C14.6417 14 15.1912 13.7713 15.6485 13.314C16.1058 12.8567 16.3341 12.3076 16.3333 11.6667C16.3333 11.025 16.1047 10.4755 15.6473 10.0182C15.19 9.56083 14.6409 9.33255 14 9.33333C13.3583 9.33333 12.8088 9.562 12.3515 10.0193C11.8942 10.4767 11.6659 11.0258 11.6667 11.6667C11.6667 12.3083 11.8953 12.8578 12.3527 13.3152C12.81 13.7725 13.3591 14.0008 14 14ZM14 25.6667C10.8694 23.0028 8.53144 20.5287 6.986 18.2443C5.44055 15.96 4.66744 13.8452 4.66666 11.9C4.66666 8.98333 5.60505 6.65972 7.48183 4.92916C9.35861 3.19861 11.5313 2.33333 14 2.33333C16.4694 2.33333 18.6426 3.19861 20.5193 4.92916C22.3961 6.65972 23.3341 8.98333 23.3333 11.9C23.3333 13.8444 22.5602 15.9592 21.014 18.2443C19.4678 20.5294 17.1298 23.0035 14 25.6667Z" fill="#353943"/>
</svg>
