<svg width="28" height="28" viewBox="0 0 28 28" fill="none" xmlns="http://www.w3.org/2000/svg">
<path d="M27.9449 8.12612C27.9353 8.12612 27.9309 8.12175 27.9274 8.12175C27.9174 8.12255 27.9078 8.12586 27.8994 8.13138C10.2489 9.9085 1.95475 17.5823 0 19.4705L0.259875 19.88H3.34425C11.3601 11.8186 22.1926 9.14288 27.9221 8.2635L27.9265 8.26788C27.93 8.26788 27.9344 8.25825 27.9396 8.25825C27.956 8.25613 27.9711 8.24813 27.982 8.23574C27.993 8.22335 27.9991 8.20741 27.9991 8.19088C27.9991 8.1585 27.9755 8.13575 27.944 8.127L27.9449 8.12612ZM0.441875 12.2596L0.2555 12.6105L4.0425 15.372C4.80975 14.9263 5.5928 14.5084 6.39013 14.119L3.85175 12.2596H0.441875ZM8.85938 15.9224C8.19158 16.4139 7.53938 16.9264 6.90375 17.4589L10.2314 19.8782H13.6815L13.8276 19.5641L8.85938 15.9224Z" fill="#8B8B8B"/>
</svg>
