<svg width="40" height="40" viewBox="0 0 40 40" fill="none" xmlns="http://www.w3.org/2000/svg">
<g clip-path="url(#clip0_14_1070)">
<mask id="mask0_14_1070" style="mask-type:luminance" maskUnits="userSpaceOnUse" x="0" y="0" width="40" height="40">
<path d="M40 0H0V40H40V0Z" fill="white"/>
</mask>
<g mask="url(#mask0_14_1070)">
<mask id="mask1_14_1070" style="mask-type:luminance" maskUnits="userSpaceOnUse" x="0" y="0" width="40" height="40">
<path d="M40 0H0V40H40V0Z" fill="white"/>
<path d="M17.5 10C17.5 10.1326 17.5527 10.2598 17.6464 10.3536C17.7402 10.4473 17.8674 10.5 18 10.5C18.1326 10.5 18.2598 10.4473 18.3536 10.3536C18.4473 10.2598 18.5 10.1326 18.5 10C18.5 9.86739 18.4473 9.74021 18.3536 9.64645C18.2598 9.55268 18.1326 9.5 18 9.5C17.8674 9.5 17.7402 9.55268 17.6464 9.64645C17.5527 9.74021 17.5 9.86739 17.5 10ZM37.5 38C37.5 38.1326 37.5527 38.2598 37.6464 38.3536C37.7402 38.4473 37.8674 38.5 38 38.5C38.1326 38.5 38.2598 38.4473 38.3536 38.3536C38.4473 38.2598 38.5 38.1326 38.5 38C38.5 37.8674 38.4473 37.7402 38.3536 37.6464C38.2598 37.5527 38.1326 37.5 38 37.5C37.8674 37.5 37.7402 37.5527 37.6464 37.6464C37.5527 37.7402 37.5 37.8674 37.5 38Z" fill="#272a31"/>
<path d="M25.5 18C25.5 18.1326 25.5527 18.2598 25.6464 18.3536C25.7402 18.4473 25.8674 18.5 26 18.5C26.1326 18.5 26.2598 18.4473 26.3536 18.3536C26.4473 18.2598 26.5 18.1326 26.5 18C26.5 17.8674 26.4473 17.7402 26.3536 17.6464C26.2598 17.5527 26.1326 17.5 26 17.5C25.8674 17.5 25.7402 17.5527 25.6464 17.6464C25.5527 17.7402 25.5 17.8674 25.5 18ZM37.5 2C37.5 2.13261 37.5527 2.25979 37.6464 2.35355C37.7402 2.44732 37.8674 2.5 38 2.5C38.1326 2.5 38.2598 2.44732 38.3536 2.35355C38.4473 2.25979 38.5 2.13261 38.5 2C38.5 1.86739 38.4473 1.74021 38.3536 1.64645C38.2598 1.55268 38.1326 1.5 38 1.5C37.8674 1.5 37.7402 1.55268 37.6464 1.64645C37.5527 1.74021 37.5 1.86739 37.5 2Z" fill="#272a31"/>
<path d="M17.5 34C17.5 34.1326 17.5527 34.2598 17.6464 34.3536C17.7402 34.4473 17.8674 34.5 18 34.5C18.1326 34.5 18.2598 34.4473 18.3536 34.3536C18.4473 34.2598 18.5 34.1326 18.5 34C18.5 33.8674 18.4473 33.7402 18.3536 33.6464C18.2598 33.5527 18.1326 33.5 18 33.5C17.8674 33.5 17.7402 33.5527 17.6464 33.6464C17.5527 33.7402 17.5 33.8674 17.5 34ZM1.5 2C1.5 2.13261 1.55268 2.25979 1.64645 2.35355C1.74021 2.44732 1.86739 2.5 2 2.5C2.13261 2.5 2.25979 2.44732 2.35355 2.35355C2.44732 2.25979 2.5 2.13261 2.5 2C2.5 1.86739 2.44732 1.74021 2.35355 1.64645C2.25979 1.55268 2.13261 1.5 2 1.5C1.86739 1.5 1.74021 1.55268 1.64645 1.64645C1.55268 1.74021 1.5 1.86739 1.5 2Z" fill="#272a31"/>
<path d="M5.5 26C5.5 26.1326 5.55268 26.2598 5.64645 26.3536C5.74021 26.4473 5.86739 26.5 6 26.5C6.13261 26.5 6.25979 26.4473 6.35355 26.3536C6.44732 26.2598 6.5 26.1326 6.5 26C6.5 25.8674 6.44732 25.7402 6.35355 25.6464C6.25979 25.5527 6.13261 25.5 6 25.5C5.86739 25.5 5.74021 25.5527 5.64645 25.6464C5.55268 25.7402 5.5 25.8674 5.5 26ZM25.5 38C25.5 38.1326 25.5527 38.2598 25.6464 38.3536C25.7402 38.4473 25.8674 38.5 26 38.5C26.1326 38.5 26.2598 38.4473 26.3536 38.3536C26.4473 38.2598 26.5 38.1326 26.5 38C26.5 37.8674 26.4473 37.7402 26.3536 37.6464C26.2598 37.5527 26.1326 37.5 26 37.5C25.8674 37.5 25.7402 37.5527 25.6464 37.6464C25.5527 37.7402 25.5 37.8674 25.5 38Z" fill="#272a31"/>
<path d="M1.5 34C1.5 34.1326 1.55268 34.2598 1.64645 34.3536C1.74021 34.4473 1.86739 34.5 2 34.5C2.13261 34.5 2.25979 34.4473 2.35355 34.3536C2.44732 34.2598 2.5 34.1326 2.5 34C2.5 33.8674 2.44732 33.7402 2.35355 33.6464C2.25979 33.5527 2.13261 33.5 2 33.5C1.86739 33.5 1.74021 33.5527 1.64645 33.6464C1.55268 33.7402 1.5 33.8674 1.5 34ZM1.5 22C1.5 22.1326 1.55268 22.2598 1.64645 22.3536C1.74021 22.4473 1.86739 22.5 2 22.5C2.13261 22.5 2.25979 22.4473 2.35355 22.3536C2.44732 22.2598 2.5 22.1326 2.5 22C2.5 21.8674 2.44732 21.7402 2.35355 21.6464C2.25979 21.5527 2.13261 21.5 2 21.5C1.86739 21.5 1.74021 21.5527 1.64645 21.6464C1.55268 21.7402 1.5 21.8674 1.5 22Z" fill="#272a31"/>
<path d="M13.5 6C13.5 6.13261 13.5527 6.25979 13.6464 6.35355C13.7402 6.44732 13.8674 6.5 14 6.5C14.1326 6.5 14.2598 6.44732 14.3536 6.35355C14.4473 6.25979 14.5 6.13261 14.5 6C14.5 5.86739 14.4473 5.74021 14.3536 5.64645C14.2598 5.55268 14.1326 5.5 14 5.5C13.8674 5.5 13.7402 5.55268 13.6464 5.64645C13.5527 5.74021 13.5 5.86739 13.5 6ZM33.5 2C33.5 2.13261 33.5527 2.25979 33.6464 2.35355C33.7402 2.44732 33.8674 2.5 34 2.5C34.1326 2.5 34.2598 2.44732 34.3536 2.35355C34.4473 2.25979 34.5 2.13261 34.5 2C34.5 1.86739 34.4473 1.74021 34.3536 1.64645C34.2598 1.55268 34.1326 1.5 34 1.5C33.8674 1.5 33.7402 1.55268 33.6464 1.64645C33.5527 1.74021 33.5 1.86739 33.5 2Z" fill="#272a31"/>
<path d="M21.5 14C21.5 14.1326 21.5527 14.2598 21.6464 14.3536C21.7402 14.4473 21.8674 14.5 22 14.5C22.1326 14.5 22.2598 14.4473 22.3536 14.3536C22.4473 14.2598 22.5 14.1326 22.5 14C22.5 13.8674 22.4473 13.7402 22.3536 13.6464C22.2598 13.5527 22.1326 13.5 22 13.5C21.8674 13.5 21.7402 13.5527 21.6464 13.6464C21.5527 13.7402 21.5 13.8674 21.5 14ZM29.5 6C29.5 6.13261 29.5527 6.25979 29.6464 6.35355C29.7402 6.44732 29.8674 6.5 30 6.5C30.1326 6.5 30.2598 6.44732 30.3536 6.35355C30.4473 6.25979 30.5 6.13261 30.5 6C30.5 5.86739 30.4473 5.74021 30.3536 5.64645C30.2598 5.55268 30.1326 5.5 30 5.5C29.8674 5.5 29.7402 5.55268 29.6464 5.64645C29.5527 5.74021 29.5 5.86739 29.5 6Z" fill="#272a31"/>
<path d="M13.5 22C13.5 22.1326 13.5527 22.2598 13.6464 22.3536C13.7402 22.4473 13.8674 22.5 14 22.5C14.1326 22.5 14.2598 22.4473 14.3536 22.3536C14.4473 22.2598 14.5 22.1326 14.5 22C14.5 21.8674 14.4473 21.7402 14.3536 21.6464C14.2598 21.5527 14.1326 21.5 14 21.5C13.8674 21.5 13.7402 21.5527 13.6464 21.6464C13.5527 21.7402 13.5 21.8674 13.5 22ZM9.5 6C9.5 6.13261 9.55268 6.25979 9.64645 6.35355C9.74021 6.44732 9.86739 6.5 10 6.5C10.1326 6.5 10.2598 6.44732 10.3536 6.35355C10.4473 6.25979 10.5 6.13261 10.5 6C10.5 5.86739 10.4473 5.74021 10.3536 5.64645C10.2598 5.55268 10.1326 5.5 10 5.5C9.86739 5.5 9.74021 5.55268 9.64645 5.64645C9.55268 5.74021 9.5 5.86739 9.5 6Z" fill="#272a31"/>
<path d="M33.5 14C33.5 14.1326 33.5527 14.2598 33.6464 14.3536C33.7402 14.4473 33.8674 14.5 34 14.5C34.1326 14.5 34.2598 14.4473 34.3536 14.3536C34.4473 14.2598 34.5 14.1326 34.5 14C34.5 13.8674 34.4473 13.7402 34.3536 13.6464C34.2598 13.5527 34.1326 13.5 34 13.5C33.8674 13.5 33.7402 13.5527 33.6464 13.6464C33.5527 13.7402 33.5 13.8674 33.5 14ZM21.5 26C21.5 26.1326 21.5527 26.2598 21.6464 26.3536C21.7402 26.4473 21.8674 26.5 22 26.5C22.1326 26.5 22.2598 26.4473 22.3536 26.3536C22.4473 26.2598 22.5 26.1326 22.5 26C22.5 25.8674 22.4473 25.7402 22.3536 25.6464C22.2598 25.5527 22.1326 25.5 22 25.5C21.8674 25.5 21.7402 25.5527 21.6464 25.6464C21.5527 25.7402 21.5 25.8674 21.5 26Z" fill="#272a31"/>
<path d="M37.5 30C37.5 30.1326 37.5527 30.2598 37.6464 30.3536C37.7402 30.4473 37.8674 30.5 38 30.5C38.1326 30.5 38.2598 30.4473 38.3536 30.3536C38.4473 30.2598 38.5 30.1326 38.5 30C38.5 29.8674 38.4473 29.7402 38.3536 29.6464C38.2598 29.5527 38.1326 29.5 38 29.5C37.8674 29.5 37.7402 29.5527 37.6464 29.6464C37.5527 29.7402 37.5 29.8674 37.5 30ZM37.5 10C37.5 10.1326 37.5527 10.2598 37.6464 10.3536C37.7402 10.4473 37.8674 10.5 38 10.5C38.1326 10.5 38.2598 10.4473 38.3536 10.3536C38.4473 10.2598 38.5 10.1326 38.5 10C38.5 9.86739 38.4473 9.74021 38.3536 9.64645C38.2598 9.55268 38.1326 9.5 38 9.5C37.8674 9.5 37.7402 9.55268 37.6464 9.64645C37.5527 9.74021 37.5 9.86739 37.5 10Z" fill="#272a31"/>
<path d="M29.5 22C29.5 22.1326 29.5527 22.2598 29.6464 22.3536C29.7402 22.4473 29.8674 22.5 30 22.5C30.1326 22.5 30.2598 22.4473 30.3536 22.3536C30.4473 22.2598 30.5 22.1326 30.5 22C30.5 21.8674 30.4473 21.7402 30.3536 21.6464C30.2598 21.5527 30.1326 21.5 30 21.5C29.8674 21.5 29.7402 21.5527 29.6464 21.6464C29.5527 21.7402 29.5 21.8674 29.5 22ZM25.5 30C25.5 30.1326 25.5527 30.2598 25.6464 30.3536C25.7402 30.4473 25.8674 30.5 26 30.5C26.1326 30.5 26.2598 30.4473 26.3536 30.3536C26.4473 30.2598 26.5 30.1326 26.5 30C26.5 29.8674 26.4473 29.7402 26.3536 29.6464C26.2598 29.5527 26.1326 29.5 26 29.5C25.8674 29.5 25.7402 29.5527 25.6464 29.6464C25.5527 29.7402 25.5 29.8674 25.5 30Z" fill="#272a31"/>
</mask>
<g mask="url(#mask1_14_1070)">
<path d="M18 10V26L30 38H38" stroke="#272a31"/>
<path d="M17 10C17 10.2652 17.1054 10.5196 17.2929 10.7071C17.4804 10.8946 17.7348 11 18 11C18.2652 11 18.5196 10.8946 18.7071 10.7071C18.8946 10.5196 19 10.2652 19 10C19 9.73478 18.8946 9.48043 18.7071 9.29289C18.5196 9.10536 18.2652 9 18 9C17.7348 9 17.4804 9.10536 17.2929 9.29289C17.1054 9.48043 17 9.73478 17 10ZM37 38C37 38.2652 37.1054 38.5196 37.2929 38.7071C37.4804 38.8946 37.7348 39 38 39C38.2652 39 38.5196 38.8946 38.7071 38.7071C38.8946 38.5196 39 38.2652 39 38C39 37.7348 38.8946 37.4804 38.7071 37.2929C38.5196 37.1054 38.2652 37 38 37C37.7348 37 37.4804 37.1054 37.2929 37.2929C37.1054 37.4804 37 37.7348 37 38Z" fill="#272a31"/>
<path d="M26 18L38 6V2" stroke="#272a31"/>
<path d="M25 18C25 18.2652 25.1054 18.5196 25.2929 18.7071C25.4804 18.8946 25.7348 19 26 19C26.2652 19 26.5196 18.8946 26.7071 18.7071C26.8946 18.5196 27 18.2652 27 18C27 17.7348 26.8946 17.4804 26.7071 17.2929C26.5196 17.1054 26.2652 17 26 17C25.7348 17 25.4804 17.1054 25.2929 17.2929C25.1054 17.4804 25 17.7348 25 18ZM37 2C37 2.26522 37.1054 2.51957 37.2929 2.70711C37.4804 2.89464 37.7348 3 38 3C38.2652 3 38.5196 2.89464 38.7071 2.70711C38.8946 2.51957 39 2.26522 39 2C39 1.73478 38.8946 1.48043 38.7071 1.29289C38.5196 1.10536 38.2652 1 38 1C37.7348 1 37.4804 1.10536 37.2929 1.29289C37.1054 1.48043 37 1.73478 37 2Z" fill="#272a31"/>
<path d="M18 34V30L14 26H10L2 18V2" stroke="#272a31"/>
<path d="M17 34C17 34.2652 17.1054 34.5196 17.2929 34.7071C17.4804 34.8946 17.7348 35 18 35C18.2652 35 18.5196 34.8946 18.7071 34.7071C18.8946 34.5196 19 34.2652 19 34C19 33.7348 18.8946 33.4804 18.7071 33.2929C18.5196 33.1054 18.2652 33 18 33C17.7348 33 17.4804 33.1054 17.2929 33.2929C17.1054 33.4804 17 33.7348 17 34ZM1 2C1 2.26522 1.10536 2.51957 1.29289 2.70711C1.48043 2.89464 1.73478 3 2 3C2.26522 3 2.51957 2.89464 2.70711 2.70711C2.89464 2.51957 3 2.26522 3 2C3 1.73478 2.89464 1.48043 2.70711 1.29289C2.51957 1.10536 2.26522 1 2 1C1.73478 1 1.48043 1.10536 1.29289 1.29289C1.10536 1.48043 1 1.73478 1 2Z" fill="#272a31"/>
<path d="M6 26L18 38H26" stroke="#272a31"/>
<path d="M5 26C5 26.2652 5.10536 26.5196 5.29289 26.7071C5.48043 26.8946 5.73478 27 6 27C6.26522 27 6.51957 26.8946 6.70711 26.7071C6.89464 26.5196 7 26.2652 7 26C7 25.7348 6.89464 25.4804 6.70711 25.2929C6.51957 25.1054 6.26522 25 6 25C5.73478 25 5.48043 25.1054 5.29289 25.2929C5.10536 25.4804 5 25.7348 5 26ZM25 38C25 38.2652 25.1054 38.5196 25.2929 38.7071C25.4804 38.8946 25.7348 39 26 39C26.2652 39 26.5196 38.8946 26.7071 38.7071C26.8946 38.5196 27 38.2652 27 38C27 37.7348 26.8946 37.4804 26.7071 37.2929C26.5196 37.1054 26.2652 37 26 37C25.7348 37 25.4804 37.1054 25.2929 37.2929C25.1054 37.4804 25 37.7348 25 38Z" fill="#272a31"/>
<path d="M2 34V22" stroke="#272a31"/>
<path d="M1 34C1 34.2652 1.10536 34.5196 1.29289 34.7071C1.48043 34.8946 1.73478 35 2 35C2.26522 35 2.51957 34.8946 2.70711 34.7071C2.89464 34.5196 3 34.2652 3 34C3 33.7348 2.89464 33.4804 2.70711 33.2929C2.51957 33.1054 2.26522 33 2 33C1.73478 33 1.48043 33.1054 1.29289 33.2929C1.10536 33.4804 1 33.7348 1 34ZM1 22C1 22.2652 1.10536 22.5196 1.29289 22.7071C1.48043 22.8946 1.73478 23 2 23C2.26522 23 2.51957 22.8946 2.70711 22.7071C2.89464 22.5196 3 22.2652 3 22C3 21.7348 2.89464 21.4804 2.70711 21.2929C2.51957 21.1054 2.26522 21 2 21C1.73478 21 1.48043 21.1054 1.29289 21.2929C1.10536 21.4804 1 21.7348 1 22Z" fill="#272a31"/>
<path d="M14 6L18 2H34" stroke="#272a31"/>
<path d="M13 6C13 6.26522 13.1054 6.51957 13.2929 6.70711C13.4804 6.89464 13.7348 7 14 7C14.2652 7 14.5196 6.89464 14.7071 6.70711C14.8946 6.51957 15 6.26522 15 6C15 5.73478 14.8946 5.48043 14.7071 5.29289C14.5196 5.10536 14.2652 5 14 5C13.7348 5 13.4804 5.10536 13.2929 5.29289C13.1054 5.48043 13 5.73478 13 6ZM33 2C33 2.26522 33.1054 2.51957 33.2929 2.70711C33.4804 2.89464 33.7348 3 34 3C34.2652 3 34.5196 2.89464 34.7071 2.70711C34.8946 2.51957 35 2.26522 35 2C35 1.73478 34.8946 1.48043 34.7071 1.29289C34.5196 1.10536 34.2652 1 34 1C33.7348 1 33.4804 1.10536 33.2929 1.29289C33.1054 1.48043 33 1.73478 33 2Z" fill="#272a31"/>
<path d="M22 14H26L30 10V6" stroke="#272a31"/>
<path d="M21 14C21 14.2652 21.1054 14.5196 21.2929 14.7071C21.4804 14.8946 21.7348 15 22 15C22.2652 15 22.5196 14.8946 22.7071 14.7071C22.8946 14.5196 23 14.2652 23 14C23 13.7348 22.8946 13.4804 22.7071 13.2929C22.5196 13.1054 22.2652 13 22 13C21.7348 13 21.4804 13.1054 21.2929 13.2929C21.1054 13.4804 21 13.7348 21 14ZM29 6C29 6.26522 29.1054 6.51957 29.2929 6.70711C29.4804 6.89464 29.7348 7 30 7C30.2652 7 30.5196 6.89464 30.7071 6.70711C30.8946 6.51957 31 6.26522 31 6C31 5.73478 30.8946 5.48043 30.7071 5.29289C30.5196 5.10536 30.2652 5 30 5C29.7348 5 29.4804 5.10536 29.2929 5.29289C29.1054 5.48043 29 5.73478 29 6Z" fill="#272a31"/>
<path d="M14 22H10L6 18V10L10 6" stroke="#272a31"/>
<path d="M13 22C13 22.2652 13.1054 22.5196 13.2929 22.7071C13.4804 22.8946 13.7348 23 14 23C14.2652 23 14.5196 22.8946 14.7071 22.7071C14.8946 22.5196 15 22.2652 15 22C15 21.7348 14.8946 21.4804 14.7071 21.2929C14.5196 21.1054 14.2652 21 14 21C13.7348 21 13.4804 21.1054 13.2929 21.2929C13.1054 21.4804 13 21.7348 13 22ZM9 6C9 6.26522 9.10536 6.51957 9.29289 6.70711C9.48043 6.89464 9.73478 7 10 7C10.2652 7 10.5196 6.89464 10.7071 6.70711C10.8946 6.51957 11 6.26522 11 6C11 5.73478 10.8946 5.48043 10.7071 5.29289C10.5196 5.10536 10.2652 5 10 5C9.73478 5 9.48043 5.10536 9.29289 5.29289C9.10536 5.48043 9 5.73478 9 6Z" fill="#272a31"/>
<path d="M34 14L22 26" stroke="#272a31"/>
<path d="M33 14C33 14.2652 33.1054 14.5196 33.2929 14.7071C33.4804 14.8946 33.7348 15 34 15C34.2652 15 34.5196 14.8946 34.7071 14.7071C34.8946 14.5196 35 14.2652 35 14C35 13.7348 34.8946 13.4804 34.7071 13.2929C34.5196 13.1054 34.2652 13 34 13C33.7348 13 33.4804 13.1054 33.2929 13.2929C33.1054 13.4804 33 13.7348 33 14ZM21 26C21 26.2652 21.1054 26.5196 21.2929 26.7071C21.4804 26.8946 21.7348 27 22 27C22.2652 27 22.5196 26.8946 22.7071 26.7071C22.8946 26.5196 23 26.2652 23 26C23 25.7348 22.8946 25.4804 22.7071 25.2929C22.5196 25.1054 22.2652 25 22 25C21.7348 25 21.4804 25.1054 21.2929 25.2929C21.1054 25.4804 21 25.7348 21 26Z" fill="#272a31"/>
<path d="M38 30V10" stroke="#272a31"/>
<path d="M37 30C37 30.2652 37.1054 30.5196 37.2929 30.7071C37.4804 30.8946 37.7348 31 38 31C38.2652 31 38.5196 30.8946 38.7071 30.7071C38.8946 30.5196 39 30.2652 39 30C39 29.7348 38.8946 29.4804 38.7071 29.2929C38.5196 29.1054 38.2652 29 38 29C37.7348 29 37.4804 29.1054 37.2929 29.2929C37.1054 29.4804 37 29.7348 37 30ZM37 10C37 10.2652 37.1054 10.5196 37.2929 10.7071C37.4804 10.8946 37.7348 11 38 11C38.2652 11 38.5196 10.8946 38.7071 10.7071C38.8946 10.5196 39 10.2652 39 10C39 9.73478 38.8946 9.48043 38.7071 9.29289C38.5196 9.10536 38.2652 9 38 9C37.7348 9 37.4804 9.10536 37.2929 9.29289C37.1054 9.48043 37 9.73478 37 10Z" fill="#272a31"/>
<path d="M30 22V26L26 30" stroke="#272a31"/>
<path d="M29 22C29 22.2652 29.1054 22.5196 29.2929 22.7071C29.4804 22.8946 29.7348 23 30 23C30.2652 23 30.5196 22.8946 30.7071 22.7071C30.8946 22.5196 31 22.2652 31 22C31 21.7348 30.8946 21.4804 30.7071 21.2929C30.5196 21.1054 30.2652 21 30 21C29.7348 21 29.4804 21.1054 29.2929 21.2929C29.1054 21.4804 29 21.7348 29 22ZM25 30C25 30.2652 25.1054 30.5196 25.2929 30.7071C25.4804 30.8946 25.7348 31 26 31C26.2652 31 26.5196 30.8946 26.7071 30.7071C26.8946 30.5196 27 30.2652 27 30C27 29.7348 26.8946 29.4804 26.7071 29.2929C26.5196 29.1054 26.2652 29 26 29C25.7348 29 25.4804 29.1054 25.2929 29.2929C25.1054 29.4804 25 29.7348 25 30Z" fill="#272a31"/>
</g>
</g>
</g>
<defs>
<clipPath id="clip0_14_1070">
<rect width="40" height="40" fill="white"/>
</clipPath>
</defs>
</svg>
