<svg width="10" height="9" viewBox="0 0 10 9" fill="none" xmlns="http://www.w3.org/2000/svg">
<path d="M10 0.956023C9.63193 1.12333 9.23518 1.23327 8.82409 1.28585C9.24474 1.0325 9.56979 0.630975 9.72275 0.148184C9.326 0.387189 8.88623 0.554493 8.42256 0.650096C8.04493 0.239006 7.51434 0 6.91205 0C5.78872 0 4.87094 0.917782 4.87094 2.05067C4.87094 2.21319 4.89006 2.37094 4.92352 2.51912C3.2218 2.43308 1.7065 1.61568 0.697897 0.377629C0.521033 0.678776 0.42065 1.0325 0.42065 1.40535C0.42065 2.11759 0.779159 2.74857 1.33365 3.10707C0.994264 3.10707 0.678776 3.01147 0.40153 2.86807V2.88241C0.40153 3.87667 1.10899 4.70841 2.04589 4.89484C1.74509 4.97716 1.4293 4.98861 1.12333 4.9283C1.25316 5.33579 1.50743 5.69236 1.85039 5.94786C2.19335 6.20337 2.60777 6.34498 3.03537 6.35277C2.31053 6.9266 1.41204 7.23677 0.487572 7.23231C0.325048 7.23231 0.162524 7.22275 0 7.20363C0.908222 7.78681 1.98853 8.1262 3.14532 8.1262C6.91205 8.1262 8.98184 5 8.98184 2.28968C8.98184 2.19885 8.98184 2.11281 8.97706 2.02199C9.37859 1.73518 9.72275 1.37189 10 0.956023Z" fill="#D3D3D3"/>
</svg>
