<svg width="28" height="28" viewBox="0 0 28 28" fill="none" xmlns="http://www.w3.org/2000/svg">
<g clip-path="url(#clip0_14_1115)">
<path d="M17.7333 27.0667H25.2C25.6951 27.0667 26.1699 26.87 26.5199 26.5199C26.87 26.1699 27.0667 25.6951 27.0667 25.2V2.79999C27.0667 2.30491 26.87 1.83012 26.5199 1.48005C26.1699 1.12999 25.6951 0.933319 25.2 0.933319H17.7333C17.2382 0.933319 16.7635 1.12999 16.4134 1.48005C16.0633 1.83012 15.8667 2.30491 15.8667 2.79999V25.2C15.8667 25.6951 16.0633 26.1699 16.4134 26.5199C16.7635 26.87 17.2382 27.0667 17.7333 27.0667ZM17.7333 27.0667H7.46665M12.1333 21.4667V27.0667M15.8667 10.2667H27.0667M18.6667 21.4667H24.2667M2.79999 6.53332H15.8667V21.4667H2.79999C2.30491 21.4667 1.83012 21.27 1.48005 20.9199C1.12999 20.5699 0.933319 20.0951 0.933319 19.6V8.39999C0.933319 7.90491 1.12999 7.43012 1.48005 7.08005C1.83012 6.72999 2.30491 6.53332 2.79999 6.53332Z" stroke="#D3D3D3" stroke-width="1.86667"/>
</g>
<defs>
<clipPath id="clip0_14_1115">
<rect width="28" height="28" fill="white"/>
</clipPath>
</defs>
</svg>
